<svg width="16" height="16" viewBox="0 0 16 16" fill="none" xmlns="http://www.w3.org/2000/svg">
<path d="M4 6C4 7.06087 4.42143 8.07828 5.17157 8.82843C5.92172 9.57857 6.93913 10 8 10M4 6C4 4.93913 4.42143 3.92172 5.17157 3.17157C5.92172 2.42143 6.93913 2 8 2M4 6H12M8 10C9.06087 10 10.0783 9.57857 10.8284 8.82843C11.5786 8.07828 12 7.06087 12 6M8 10C8.88867 9.778 9.33333 8.44467 9.33333 6C9.33333 3.55533 8.88867 2.222 8 2M8 10C7.11133 9.778 6.66667 8.44467 6.66667 6C6.66667 3.55533 7.11133 2.222 8 2M8 10V12M12 6C12 4.93913 11.5786 3.92172 10.8284 3.17157C10.0783 2.42143 9.06087 2 8 2M2 13.3333H6.66667M6.66667 13.3333C6.66667 13.687 6.80714 14.0261 7.05719 14.2761C7.30724 14.5262 7.64638 14.6667 8 14.6667C8.35362 14.6667 8.69276 14.5262 8.94281 14.2761C9.19286 14.0261 9.33333 13.687 9.33333 13.3333M6.66667 13.3333C6.66667 12.9797 6.80714 12.6406 7.05719 12.3905C7.30724 12.1405 7.64638 12 8 12M9.33333 13.3333H14M9.33333 13.3333C9.33333 12.9797 9.19286 12.6406 8.94281 12.3905C8.69276 12.1405 8.35362 12 8 12" stroke="#475569" stroke-linecap="round" stroke-linejoin="round"/>
</svg>
