<svg width="129" height="16" viewBox="0 0 129 16" fill="none" xmlns="http://www.w3.org/2000/svg">
<g clip-path="url(#clip0_9827_58715)">
<path d="M7.225 0.6835C7.1325 0.534 6.8945 0.0145 6.468 0C5.959 0.0075 5.565 0.2605 5.3325 0.666L4.207 2.6335C3.847 3.261 3.32 3.7795 2.682 4.131L0.6775 5.2365L0.679 5.235C0.26 5.467 0 5.9015 0 6.3745V9.549C0 9.1115 0.5325 8.868 0.684 8.774C0.8355 8.68 4.733 6.538 4.733 6.538C5.372 6.184 5.8995 5.6655 6.258 5.0365L7.9725 2.0275C7.583 1.3215 7.2605 0.7395 7.2255 0.6825L7.225 0.6835Z" fill="url(#paint0_linear_9827_58715)"/>
<path d="M15.3164 7.225C15.4659 7.1325 15.9854 6.8945 15.9999 6.468C15.9924 5.959 15.7394 5.565 15.3339 5.3325L13.3664 4.207C12.7389 3.847 12.2204 3.32 11.8689 2.682L10.7634 0.6775L10.7649 0.679C10.5329 0.26 10.0984 0 9.62544 0H6.45044C6.88794 0 7.13144 0.5325 7.22544 0.684C7.31944 0.8355 9.46144 4.733 9.46144 4.733C9.81544 5.372 10.3339 5.8995 10.9629 6.258L13.9719 7.9725C14.6779 7.583 15.2599 7.2605 15.3169 7.2255L15.3164 7.225Z" fill="url(#paint1_linear_9827_58715)"/>
<path d="M8.77509 15.3167C8.86759 15.4662 9.10559 15.9857 9.53209 16.0002C10.0411 15.9927 10.4351 15.7397 10.6676 15.3342L11.7931 13.3667C12.1531 12.7392 12.6801 12.2207 13.3181 11.8692L15.3226 10.7637L15.3211 10.7652C15.7401 10.5332 16.0001 10.0987 16.0001 9.62567V6.45117C16.0001 6.88867 15.4676 7.13217 15.3161 7.22617C15.1646 7.32017 11.2671 9.46217 11.2671 9.46217C10.6281 9.81617 10.1006 10.3347 9.74209 10.9637L8.02759 13.9727C8.41709 14.6787 8.73959 15.2607 8.77459 15.3177L8.77509 15.3167Z" fill="url(#paint2_linear_9827_58715)"/>
<path d="M0.6835 8.77484C0.534 8.86734 0.0145 9.10534 0 9.53184C0.0075 10.0408 0.2605 10.4348 0.666 10.6673L2.6335 11.7928C3.261 12.1528 3.7795 12.6798 4.131 13.3178L5.2365 15.3223L5.235 15.3208C5.467 15.7398 5.9015 15.9998 6.3745 15.9998H9.5495C9.112 15.9998 8.8685 15.4673 8.7745 15.3158C8.6805 15.1643 6.5385 11.2668 6.5385 11.2668C6.1845 10.6278 5.666 10.1003 5.037 9.74184L2.028 8.02734C1.322 8.41684 0.74 8.73934 0.683 8.77434L0.6835 8.77484Z" fill="url(#paint3_linear_9827_58715)"/>
</g>
<rect x="26.7493" y="4.75098" width="1.99991" height="8.24907" fill="#101920"/>
<rect x="34.75" y="2.99902" width="1.99991" height="9.99887" fill="#101920"/>
<rect x="44.7493" y="2.99902" width="1.99991" height="9.99887" fill="#101920"/>
<rect x="63.248" y="2.99902" width="1.99991" height="9.99887" fill="#101920"/>
<rect x="76.4973" y="2.99902" width="1.99991" height="9.99887" fill="#101920"/>
<rect x="22" y="2.99902" width="11.4995" height="1.7498" fill="#101920"/>
<rect x="36.7488" y="7.12402" width="7.99964" height="1.7498" fill="#101920"/>
<path d="M51.3733 9.24902H58.623V10.9988H51.3733V9.24902Z" fill="#101920"/>
<path d="M47.9985 12.999H50.2484L56.1232 3.00016H53.8733L47.9985 12.999Z" fill="#101920"/>
<path d="M59.7483 12.999H61.9982L56.1234 3.00016H53.8735L59.7483 12.999Z" fill="#101920"/>
<path d="M75.2483 12.999H72.2483L66.4983 8.96387V8H68.2483L75.2483 12.999ZM68.2483 7.99805H66.4983V7.0332L72.2483 2.99902H75.2483L68.2483 7.99805Z" fill="#101920"/>
<path d="M124.375 12.9979C123.531 12.9979 122.814 12.9541 122.224 12.8664C121.633 12.7831 121.157 12.61 120.794 12.347C120.431 12.0797 120.166 11.6808 120 11.1505C119.834 10.6202 119.75 9.91238 119.75 9.02705C119.75 8.16802 119.834 7.47992 120 6.96274C120.166 6.44557 120.431 6.0555 120.794 5.79253C121.157 5.52956 121.633 5.35425 122.224 5.26659C122.814 5.17894 123.531 5.13511 124.375 5.13511C125.184 5.13511 125.867 5.19647 126.422 5.31919C126.982 5.44191 127.431 5.71583 127.75 6.14097V2.99902H129L129 12.7479H127.75L127.75 11.9855C127.431 12.415 126.982 12.6911 126.422 12.8138C125.867 12.9365 125.184 12.9979 124.375 12.9979ZM127.741 9.02705C127.741 8.40031 127.697 7.89847 127.609 7.52155C127.522 7.14463 127.36 6.86194 127.124 6.67348C126.888 6.48063 126.549 6.35134 126.107 6.2856C125.665 6.21986 125.088 6.18699 124.375 6.18699C123.597 6.18699 122.98 6.21986 122.525 6.2856C122.071 6.35134 121.736 6.48063 121.522 6.67348C121.307 6.86194 121.167 7.14463 121.102 7.52155C121.041 7.89847 121.01 8.40031 121.01 9.02705C121.01 9.67571 121.041 10.1951 121.102 10.5851C121.167 10.9752 121.307 11.2689 121.522 11.4661C121.736 11.6589 122.071 11.7882 122.525 11.854C122.98 11.9153 123.597 11.946 124.375 11.946C125.088 11.946 125.665 11.9153 126.107 11.854C126.549 11.7882 126.888 11.6589 127.124 11.4661C127.36 11.2689 127.522 10.9752 127.609 10.5851C127.697 10.1951 127.741 9.67571 127.741 9.02705Z" fill="#97999B"/>
<path d="M113.619 12.9991C112.639 12.9991 111.867 12.8914 111.303 12.6759C110.739 12.456 110.338 12.0909 110.099 11.5808C109.86 11.0662 109.75 10.3647 109.75 9.47632V5.25H111V9.47632C111 9.97769 111.036 10.3911 111.114 10.7166C111.196 11.0376 111.34 11.2883 111.543 11.4686C111.747 11.6445 112.034 11.7677 112.402 11.838C112.775 11.9084 113.254 11.9436 113.84 11.9436C114.708 11.9436 115.388 11.871 115.883 11.7259C116.377 11.5808 116.727 11.3543 116.93 11.0464C117.139 10.7341 117.25 10.3295 117.25 9.83256V5.25074H118.5V12.7491H117.25V11.8446C117.067 12.0997 116.831 12.313 116.553 12.4846C116.275 12.6561 115.905 12.7836 115.441 12.8672C114.976 12.9551 114.369 12.9991 113.619 12.9991Z" fill="#97999B"/>
<path d="M103.875 12.9991C103.031 12.9991 102.314 12.9559 101.723 12.8695C101.133 12.7875 100.656 12.6168 100.293 12.3577C99.9303 12.0942 99.6657 11.7011 99.4995 11.1785C99.3333 10.6558 99.2502 9.95821 99.2502 9.08568C99.2502 8.23907 99.3333 7.56091 99.4995 7.05122C99.6657 6.54152 99.9303 6.15709 100.293 5.89792C100.656 5.63875 101.133 5.46597 101.723 5.37958C102.314 5.29319 103.031 5.25 103.875 5.25C104.723 5.25 105.441 5.29319 106.027 5.37958C106.617 5.46597 107.094 5.63875 107.457 5.89792C107.82 6.15709 108.084 6.54152 108.251 7.05122C108.417 7.56091 108.5 8.23907 108.5 9.08568C108.5 9.95821 108.417 10.6558 108.251 11.1785C108.084 11.7011 107.82 12.0942 107.457 12.3577C107.094 12.6168 106.617 12.7875 106.027 12.8695C105.441 12.9559 104.723 12.9991 103.875 12.9991ZM107.24 9.08568C107.24 8.468 107.208 7.97342 107.142 7.60195C107.081 7.23047 106.943 6.95187 106.729 6.76613C106.514 6.57607 106.18 6.44865 105.725 6.38386C105.275 6.31907 104.658 6.28667 103.875 6.28667C103.097 6.28667 102.48 6.31907 102.025 6.38386C101.57 6.44865 101.236 6.57607 101.021 6.76613C100.807 6.95187 100.667 7.23047 100.602 7.60195C100.54 7.97342 100.51 8.468 100.51 9.08568C100.51 9.72496 100.54 10.2368 100.602 10.6213C100.667 11.0057 100.807 11.2951 101.021 11.4895C101.236 11.6795 101.57 11.8069 102.025 11.8717C102.48 11.9322 103.097 11.9624 103.875 11.9624C104.658 11.9624 105.275 11.9322 105.725 11.8717C106.18 11.8069 106.514 11.6795 106.729 11.4895C106.943 11.2951 107.081 11.0057 107.142 10.6213C107.208 10.2368 107.24 9.72496 107.24 9.08568Z" fill="#97999B"/>
<path d="M96.5 12.7479V2.99902H97.7499V12.7479H96.5Z" fill="#97999B"/>
<path d="M83.25 8.12344V7.87347C83.25 7.02357 83.2915 6.31115 83.3746 5.73621C83.4577 5.15711 83.6009 4.68633 83.8045 4.32387C84.008 3.96141 84.2842 3.68436 84.633 3.49272C84.986 3.30107 85.4284 3.17192 85.96 3.10526C86.4916 3.03444 87.1312 2.99902 87.8788 2.99902H90.3894C91.245 2.99902 91.9655 3.04069 92.5511 3.12401C93.1409 3.20317 93.6144 3.36357 93.9716 3.6052C94.3329 3.84268 94.5945 4.19472 94.7565 4.66133C94.9185 5.12378 94.9995 5.7383 94.9995 6.50488H93.8033C93.8033 5.90078 93.7494 5.43208 93.6414 5.09879C93.5334 4.76132 93.3506 4.5176 93.0931 4.36762C92.8398 4.21764 92.493 4.12598 92.0528 4.09265C91.6125 4.05515 91.0581 4.03641 90.3894 4.03641H87.8788C87.2849 4.03641 86.7844 4.05515 86.3774 4.09265C85.9704 4.12598 85.6381 4.20722 85.3806 4.33637C85.1273 4.46136 84.9321 4.66133 84.795 4.9363C84.6621 5.21127 84.5707 5.58623 84.5209 6.06118C84.471 6.53612 84.4461 7.14022 84.4461 7.87347V8.12344C84.4461 8.8317 84.471 9.41913 84.5209 9.88574C84.5707 10.3524 84.6621 10.7252 84.795 11.0044C84.9321 11.2835 85.1273 11.4918 85.3806 11.6293C85.6381 11.7668 85.9704 11.8564 86.3774 11.898C86.7844 11.9397 87.2849 11.9605 87.8788 11.9605H90.3894C91.0581 11.9605 91.6125 11.9459 92.0528 11.9168C92.493 11.8876 92.8398 11.8022 93.0931 11.6605C93.3506 11.5189 93.5334 11.2835 93.6414 10.9544C93.7494 10.6211 93.8033 10.1545 93.8033 9.55453H94.9995C94.9995 10.3211 94.9185 10.9335 94.7565 11.3918C94.5945 11.8501 94.3329 12.1959 93.9716 12.4292C93.6144 12.6583 93.1409 12.8104 92.5511 12.8854C91.9655 12.9604 91.245 12.9979 90.3894 12.9979H87.8788C86.9443 12.9979 86.1759 12.9333 85.5737 12.8042C84.9715 12.6792 84.5001 12.4459 84.1596 12.1042C83.8231 11.7626 83.5864 11.271 83.4494 10.6294C83.3165 9.98781 83.25 9.15249 83.25 8.12344Z" fill="#97999B"/>
<defs>
<linearGradient id="paint0_linear_9827_58715" x1="0.0158723" y1="-0.00140692" x2="7.9725" y2="-0.00140523" gradientUnits="userSpaceOnUse">
<stop stop-color="#888B8D"/>
<stop offset="1" stop-color="#101820"/>
</linearGradient>
<linearGradient id="paint1_linear_9827_58715" x1="6.46945" y1="-0.00117465" x2="15.9999" y2="-0.00117174" gradientUnits="userSpaceOnUse">
<stop stop-color="#888B8D"/>
<stop offset="1" stop-color="#101820"/>
</linearGradient>
<linearGradient id="paint2_linear_9827_58715" x1="8.04346" y1="6.44976" x2="16.0001" y2="6.44977" gradientUnits="userSpaceOnUse">
<stop stop-color="#101820"/>
<stop offset="1" stop-color="#888B8D"/>
</linearGradient>
<linearGradient id="paint3_linear_9827_58715" x1="0.019012" y1="8.02617" x2="9.5495" y2="8.02617" gradientUnits="userSpaceOnUse">
<stop stop-color="#101820"/>
<stop offset="1" stop-color="#888B8D"/>
</linearGradient>
<clipPath id="clip0_9827_58715">
<rect width="16" height="16" fill="white"/>
</clipPath>
</defs>
</svg>
