<svg width="16" height="16" viewBox="0 0 16 16" fill="none" xmlns="http://www.w3.org/2000/svg">
<path d="M10.599 13.4069V13.4136M12.6923 11.7402V11.7469M13.8457 9.33333V9.34M13.8457 6.66667V6.67333M12.6923 4.25977V4.26643M10.599 2.5931V2.59977M7.99902 2V2.00667M5.39901 2.5931V2.59977M3.3057 4.25977V4.26643M2.15234 6.66667V6.67333M2.15234 9.33333V9.34M3.3057 11.7402V11.7469M5.39901 13.4069V13.4136M7.99902 14V14.0067M7.33236 8C7.33236 8.17681 7.40259 8.34638 7.52762 8.4714C7.65264 8.59643 7.82221 8.66667 7.99902 8.66667C8.17583 8.66667 8.3454 8.59643 8.47043 8.4714C8.59545 8.34638 8.66569 8.17681 8.66569 8C8.66569 7.82319 8.59545 7.65362 8.47043 7.5286C8.3454 7.40357 8.17583 7.33333 7.99902 7.33333C7.82221 7.33333 7.65264 7.40357 7.52762 7.5286C7.40259 7.65362 7.33236 7.82319 7.33236 8ZM4.66569 8C4.66569 8.88406 5.01688 9.7319 5.642 10.357C6.26712 10.9821 7.11497 11.3333 7.99902 11.3333C8.88308 11.3333 9.73092 10.9821 10.356 10.357C10.9812 9.7319 11.3324 8.88406 11.3324 8C11.3324 7.11595 10.9812 6.2681 10.356 5.64298C9.73092 5.01786 8.88308 4.66667 7.99902 4.66667C7.11497 4.66667 6.26712 5.01786 5.642 5.64298C5.01688 6.2681 4.66569 7.11595 4.66569 8Z" stroke="#0F172A" stroke-linecap="round" stroke-linejoin="round"/>
</svg>
