<svg width="16" height="16" viewBox="0 0 16 16" fill="none" xmlns="http://www.w3.org/2000/svg">
<path d="M2.66602 4C2.66602 5.10467 5.05402 6 7.99935 6C10.9447 6 13.3327 5.10467 13.3327 4M2.66602 4C2.66602 2.89533 5.05402 2 7.99935 2C10.9447 2 13.3327 2.89533 13.3327 4M2.66602 4V8M13.3327 4V7.66667M2.66602 8C2.66602 9.10467 5.05402 10 7.99935 10C8.13935 10 8.27935 9.998 8.41668 9.99333M2.66602 8V12C2.66602 13.1047 5.05402 14 7.99935 14M10.6 12.7H14.6M12.6 10.7V12.7V14.7" stroke="#0F172A" stroke-linecap="round" stroke-linejoin="round"/>
</svg>
