<svg width="16" height="16" viewBox="0 0 16 16" fill="none" xmlns="http://www.w3.org/2000/svg">
<path d="M3.95378 4.45736L4.80378 7.29002M8.54178 11.0294L11.3758 11.8794M7.78841 8.04474L11.6277 4.2054M2.66602 3.5C2.66602 3.63132 2.69188 3.76136 2.74214 3.88268C2.79239 4.00401 2.86605 4.11425 2.95891 4.20711C3.05177 4.29997 3.16201 4.37362 3.28333 4.42388C3.40466 4.47413 3.53469 4.5 3.66602 4.5C3.79734 4.5 3.92737 4.47413 4.0487 4.42388C4.17002 4.37362 4.28026 4.29997 4.37312 4.20711C4.46598 4.11425 4.53964 4.00401 4.5899 3.88268C4.64015 3.76136 4.66602 3.63132 4.66602 3.5C4.66602 3.36868 4.64015 3.23864 4.5899 3.11732C4.53964 2.99599 4.46598 2.88575 4.37312 2.79289C4.28026 2.70003 4.17002 2.62638 4.0487 2.57612C3.92737 2.52587 3.79734 2.5 3.66602 2.5C3.53469 2.5 3.40466 2.52587 3.28333 2.57612C3.16201 2.62638 3.05177 2.70003 2.95891 2.79289C2.86605 2.88575 2.79239 2.99599 2.74214 3.11732C2.69188 3.23864 2.66602 3.36868 2.66602 3.5ZM11.3327 3.5C11.3327 3.76522 11.438 4.01957 11.6256 4.20711C11.8131 4.39464 12.0675 4.5 12.3327 4.5C12.5979 4.5 12.8523 4.39464 13.0398 4.20711C13.2273 4.01957 13.3327 3.76522 13.3327 3.5C13.3327 3.23478 13.2273 2.98043 13.0398 2.79289C12.8523 2.60536 12.5979 2.5 12.3327 2.5C12.0675 2.5 11.8131 2.60536 11.6256 2.79289C11.438 2.98043 11.3327 3.23478 11.3327 3.5ZM11.3327 12.1667C11.3327 12.4319 11.438 12.6862 11.6256 12.8738C11.8131 13.0613 12.0675 13.1667 12.3327 13.1667C12.5979 13.1667 12.8523 13.0613 13.0398 12.8738C13.2273 12.6862 13.3327 12.4319 13.3327 12.1667C13.3327 11.9015 13.2273 11.6471 13.0398 11.4596C12.8523 11.272 12.5979 11.1667 12.3327 11.1667C12.0675 11.1667 11.8131 11.272 11.6256 11.4596C11.438 11.6471 11.3327 11.9015 11.3327 12.1667ZM2.66602 10.1667C2.66602 10.9623 2.98209 11.7254 3.5447 12.288C4.1073 12.8506 4.87037 13.1667 5.66602 13.1667C6.46167 13.1667 7.22473 12.8506 7.78734 12.288C8.34994 11.7254 8.66602 10.9623 8.66602 10.1667C8.66602 9.37102 8.34994 8.60796 7.78734 8.04535C7.22473 7.48274 6.46167 7.16667 5.66602 7.16667C4.87037 7.16667 4.1073 7.48274 3.5447 8.04535C2.98209 8.60796 2.66602 9.37102 2.66602 10.1667Z" stroke="black" stroke-linecap="round" stroke-linejoin="round"/>
</svg>
