<svg width="16" height="16" viewBox="0 0 16 16" fill="none" xmlns="http://www.w3.org/2000/svg">
<path d="M5.22222 5.5H10.7778M5.22222 8H10.7778M5.22222 10.5H10.7778M3 4.25C3 3.91848 3.11706 3.60054 3.32544 3.36612C3.53381 3.1317 3.81643 3 4.11111 3H11.8889C12.1836 3 12.4662 3.1317 12.6746 3.36612C12.8829 3.60054 13 3.91848 13 4.25V11.75C13 12.0815 12.8829 12.3995 12.6746 12.6339C12.4662 12.8683 12.1836 13 11.8889 13H4.11111C3.81643 13 3.53381 12.8683 3.32544 12.6339C3.11706 12.3995 3 12.0815 3 11.75V4.25Z" stroke="black" stroke-linecap="round" stroke-linejoin="round"/>
</svg>
