<svg width="16" height="16" viewBox="0 0 16 16" fill="none" xmlns="http://www.w3.org/2000/svg">
<path d="M9.99999 4.66667L5.66665 9C5.40144 9.26522 5.25244 9.62493 5.25244 10C5.25244 10.3751 5.40144 10.7348 5.66665 11C5.93187 11.2652 6.29158 11.4142 6.66665 11.4142C7.04172 11.4142 7.40144 11.2652 7.66665 11L12 6.66667C12.5304 6.13624 12.8284 5.41681 12.8284 4.66667C12.8284 3.91652 12.5304 3.1971 12 2.66667C11.4696 2.13624 10.7501 1.83824 9.99999 1.83824C9.24984 1.83824 8.53042 2.13624 7.99999 2.66667L3.66665 7C2.871 7.79565 2.42401 8.87478 2.42401 10C2.42401 11.1252 2.871 12.2044 3.66665 13C4.4623 13.7957 5.54143 14.2426 6.66665 14.2426C7.79187 14.2426 8.871 13.7957 9.66665 13L14 8.66667" stroke="black" stroke-linecap="round" stroke-linejoin="round"/>
</svg>
