<svg width="16" height="16" viewBox="0 0 16 16" fill="none" xmlns="http://www.w3.org/2000/svg">
<path d="M4.66761 11.9999C3.8358 11.9999 3.03805 11.6839 2.44987 11.1212C1.86169 10.5586 1.53125 9.79558 1.53125 8.99993C1.53125 8.20428 1.86169 7.44122 2.44987 6.87861C3.03805 6.316 3.8358 5.99993 4.66761 5.99993C4.86407 5.12471 5.43879 4.35558 6.26534 3.86174C6.6746 3.61721 7.13338 3.44763 7.61546 3.36267C8.09755 3.27771 8.59351 3.27905 9.07502 3.36659C9.55653 3.45414 10.0142 3.62619 10.4218 3.87291C10.8294 4.11964 11.1791 4.43621 11.4508 4.80455C11.7225 5.17288 11.9109 5.58578 12.0053 6.01966C12.0997 6.45354 12.0982 6.8999 12.0009 7.33326H12.6676C13.2865 7.33326 13.8799 7.57909 14.3175 8.01668C14.7551 8.45426 15.0009 9.04775 15.0009 9.66659C15.0009 10.2854 14.7551 10.8789 14.3175 11.3165C13.8799 11.7541 13.2865 11.9999 12.6676 11.9999H12.0009M6.00098 9.99996L8.00098 7.99996M8.00098 7.99996L10.001 9.99996M8.00098 7.99996V14" stroke="#0F172A" stroke-linecap="round" stroke-linejoin="round"/>
</svg>
