<svg width="16" height="16" viewBox="0 0 16 16" fill="none" xmlns="http://www.w3.org/2000/svg">
<path d="M3 4.25C3 3.91848 3.1317 3.60054 3.36612 3.36612C3.60054 3.1317 3.91848 3 4.25 3H11.75C12.0815 3 12.3995 3.1317 12.6339 3.36612C12.8683 3.60054 13 3.91848 13 4.25V5.5C13 5.83152 12.8683 6.14946 12.6339 6.38388C12.3995 6.6183 12.0815 6.75 11.75 6.75H4.25C3.91848 6.75 3.60054 6.6183 3.36612 6.38388C3.1317 6.14946 3 5.83152 3 5.5V4.25Z" stroke="black" stroke-linecap="round" stroke-linejoin="round"/>
<path d="M3 10.5C3 10.1685 3.1317 9.85054 3.36612 9.61612C3.60054 9.3817 3.91848 9.25 4.25 9.25H11.75C12.0815 9.25 12.3995 9.3817 12.6339 9.61612C12.8683 9.85054 13 10.1685 13 10.5V11.75C13 12.0815 12.8683 12.3995 12.6339 12.6339C12.3995 12.8683 12.0815 13 11.75 13H4.25C3.91848 13 3.60054 12.8683 3.36612 12.6339C3.1317 12.3995 3 12.0815 3 11.75V10.5Z" stroke="black" stroke-linecap="round" stroke-linejoin="round"/>
</svg>
