<svg width="16" height="16" viewBox="0 0 16 16" fill="none" xmlns="http://www.w3.org/2000/svg">
<path d="M9.33333 2V4.66667C9.33333 4.84348 9.40357 5.01305 9.5286 5.13807C9.65362 5.2631 9.82319 5.33333 10 5.33333H12.6667M9.33333 2H4.66667C4.31304 2 3.97391 2.14048 3.72386 2.39052C3.47381 2.64057 3.33333 2.97971 3.33333 3.33333V5.33333M9.33333 2L12.6667 5.33333M12.6667 5.33333V12.6667C12.6667 13.0203 12.5262 13.3594 12.2761 13.6095C12.0261 13.8595 11.687 14 11.3333 14H8M3 11.3333L2 14.6667L4 13.6667L6 14.6667L5 11.3333M2 9.33333C2 9.86377 2.21071 10.3725 2.58579 10.7475C2.96086 11.1226 3.46957 11.3333 4 11.3333C4.53043 11.3333 5.03914 11.1226 5.41421 10.7475C5.78929 10.3725 6 9.86377 6 9.33333C6 8.8029 5.78929 8.29419 5.41421 7.91912C5.03914 7.54405 4.53043 7.33333 4 7.33333C3.46957 7.33333 2.96086 7.54405 2.58579 7.91912C2.21071 8.29419 2 8.8029 2 9.33333Z" stroke="#0F172A" stroke-linecap="round" stroke-linejoin="round"/>
</svg>
