<svg width="16" height="16" viewBox="0 0 16 16" fill="none" xmlns="http://www.w3.org/2000/svg">
<path d="M4.43865 10.6666C2.72398 10.6666 1.33398 9.32859 1.33398 7.67792C1.33398 6.02792 2.72398 4.68992 4.43865 4.68992C4.70065 3.51526 5.63465 2.55659 6.88865 2.17459C8.14198 1.79326 9.52598 2.04592 10.518 2.84126C11.51 3.63459 11.9593 4.84592 11.698 6.02059H12.358C13.6333 6.02059 14.6673 7.06059 14.6673 8.34459C14.6673 9.62926 13.6333 10.6693 12.3573 10.6693H4.43865M8.00065 10.6667V14M10.6673 10.6667V13.3333C10.6673 13.5101 10.7376 13.6797 10.8626 13.8047C10.9876 13.9298 11.1572 14 11.334 14H14.0007M5.33398 10.6667V13.3333C5.33398 13.5101 5.26375 13.6797 5.13872 13.8047C5.0137 13.9298 4.84413 14 4.66732 14H2.00065" stroke="black" stroke-linecap="round" stroke-linejoin="round"/>
</svg>
