<svg width="16" height="16" viewBox="0 0 16 16" fill="none" xmlns="http://www.w3.org/2000/svg">
<path d="M7.53059 7.52669C7.4055 7.6517 7.33519 7.82128 7.33512 7.99812C7.33509 8.08569 7.35231 8.1724 7.38579 8.25332C7.41927 8.33423 7.46836 8.40775 7.53026 8.46969C7.59216 8.53163 7.66565 8.58078 7.74653 8.61431C7.82742 8.64785 7.91412 8.66513 8.00169 8.66516C8.17854 8.66522 8.34817 8.59503 8.47326 8.47003M5.64875 5.63713C5.33724 5.9464 5.08988 6.31414 4.92088 6.71925C4.75187 7.12436 4.66454 7.55886 4.6639 7.99781C4.66327 8.43677 4.74933 8.87152 4.91716 9.27712C5.08499 9.68272 5.33127 10.0512 5.64188 10.3614C5.95248 10.6715 6.32129 10.9173 6.72713 11.0845C7.13297 11.2518 7.56784 11.3372 8.00679 11.336C8.44574 11.3347 8.88012 11.2468 9.28499 11.0772C9.68987 10.9076 10.0573 10.6597 10.3661 10.3478M11.2761 8.62047C11.3769 8.08893 11.3468 7.54084 11.1884 7.02353C11.03 6.50622 10.7481 6.03523 10.367 5.65124C9.98592 5.26724 9.51707 4.98178 9.00097 4.8195C8.48487 4.65723 7.93703 4.62301 7.40475 4.7198M10.5999 13.4069V13.4136M12.6934 11.7402V11.7469M13.8467 9.33333V9.34M13.8467 6.66667V6.67333M12.6934 4.25977V4.26643M10.5999 2.5931V2.59977M8 2V2.00667M5.40007 2.5931V2.59977M3.30664 4.25977V4.26643M2.15332 6.66667V6.67333M2.15332 9.33333V9.34M3.30664 11.7402V11.7469M5.40007 13.4069V13.4136M8 14V14.0067M2 2L14 14" stroke="black" stroke-linecap="round" stroke-linejoin="round"/>
</svg>
