<svg width="16" height="16" viewBox="0 0 16 16" fill="none" xmlns="http://www.w3.org/2000/svg">
<path d="M1.99872 4.24959H14M2.7488 4.24959L3.49888 13.2506C3.49888 13.6484 3.65693 14.03 3.93827 14.3113C4.2196 14.5927 4.60118 14.7507 4.99904 14.7507H6.49921M13.2499 4.24959L12.9687 7.62496M5.74913 4.24959V1.99935C5.74913 1.80042 5.82815 1.60963 5.96882 1.46896C6.10949 1.32829 6.30027 1.24927 6.49921 1.24927H9.49953C9.69847 1.24927 9.88925 1.32829 10.0299 1.46896C10.1706 1.60963 10.2496 1.80042 10.2496 1.99935V4.24959M12 10V9M13.4167 10.5833L14.1334 9.86667M14 12H15M13.4167 13.4167L14.1334 14.1333M12 14V15M10.5833 13.4167L9.86668 14.1333M10 12H9.00002M10.5833 10.5833L9.86668 9.86667M6.66652 7.33331V11.3333M9.33319 7.33331V8" stroke="#0F172A" stroke-linecap="round" stroke-linejoin="round"/>
</svg>
