<svg width="16" height="16" viewBox="0 0 16 16" fill="none" xmlns="http://www.w3.org/2000/svg">
<path d="M8 1.5C11.5898 1.50001 14.4999 4.41023 14.5 8C14.5 11.5898 11.5898 14.5 8 14.5C4.41032 14.4998 1.50001 11.5897 1.5 8C1.50007 4.41033 4.41036 1.50018 8 1.5ZM8 2.5C4.96264 2.50018 2.50007 4.96262 2.5 8C2.50001 11.0374 4.9626 13.4998 8 13.5C11.0375 13.5 13.5 11.0375 13.5 8C13.4999 4.96252 11.0375 2.50001 8 2.5ZM9.44629 5.84668C9.64149 5.65148 9.95804 5.65161 10.1533 5.84668C10.3484 6.04195 10.3485 6.3585 10.1533 6.55371L8.70703 8L10.1533 9.44629C10.3484 9.64156 10.3485 9.95811 10.1533 10.1533C9.9581 10.3485 9.64156 10.3484 9.44629 10.1533L8 8.70703L6.55371 10.1533C6.3585 10.3485 6.04195 10.3484 5.84668 10.1533C5.65161 9.95805 5.65149 9.64149 5.84668 9.44629L7.29297 8L5.84668 6.55371C5.65142 6.35845 5.65143 6.04194 5.84668 5.84668C6.04194 5.65142 6.35845 5.65142 6.55371 5.84668L8 7.29297L9.44629 5.84668Z" fill="black"/>
</svg>
