<svg width="16" height="16" viewBox="0 0 16 16" fill="none" xmlns="http://www.w3.org/2000/svg">
<path d="M7.06944 12.2683C7.30611 13.2439 8.69389 13.2439 8.93055 12.2683C8.96616 12.1219 9.03582 11.986 9.13386 11.8715C9.2319 11.7571 9.35556 11.6674 9.49479 11.6097C9.63402 11.5521 9.78488 11.5281 9.93513 11.5397C10.0854 11.5514 10.2307 11.5983 10.3594 11.6767C11.2172 12.1989 12.1983 11.2172 11.6761 10.36C11.5976 10.2312 11.5506 10.0858 11.539 9.93544C11.5273 9.78509 11.5513 9.63412 11.609 9.49481C11.6667 9.35549 11.7565 9.23178 11.8711 9.13373C11.9857 9.03568 12.1218 8.96606 12.2683 8.93055C13.2439 8.69389 13.2439 7.30611 12.2683 7.06944C12.1219 7.03384 11.986 6.96418 11.8715 6.86614C11.7571 6.7681 11.6674 6.64444 11.6097 6.50521C11.5521 6.36598 11.5281 6.21512 11.5397 6.06487C11.5514 5.91463 11.5983 5.76925 11.6767 5.64056C12.1989 4.78278 11.2172 3.80167 10.36 4.32389C10.2312 4.40239 10.0858 4.44938 9.93544 4.46104C9.78509 4.47269 9.63412 4.44869 9.49481 4.39097C9.35549 4.33325 9.23178 4.24346 9.13373 4.12889C9.03568 4.01432 8.96606 3.87822 8.93055 3.73167C8.69389 2.75611 7.30611 2.75611 7.06944 3.73167C6.91611 4.36222 6.19611 4.66111 5.64056 4.32333C4.78278 3.80111 3.80167 4.78278 4.32389 5.64C4.40239 5.76875 4.44938 5.91422 4.46104 6.06456C4.47269 6.21491 4.44869 6.36588 4.39097 6.50519C4.33325 6.64451 4.24346 6.76822 4.12889 6.86627C4.01432 6.96432 3.87822 7.03393 3.73167 7.06944C2.75611 7.30611 2.75611 8.69389 3.73167 8.93055M7.30989 7.58514C7.2424 7.65399 7.2046 7.74656 7.2046 7.84297C7.2046 7.93938 7.2424 8.03194 7.30989 8.10079L7.89921 8.69011C7.96806 8.7576 8.06062 8.7954 8.15703 8.7954C8.25344 8.7954 8.34601 8.7576 8.41486 8.69011L9.80345 7.30153C9.98865 7.71081 10.0447 8.16681 9.9642 8.60877C9.88368 9.05072 9.67038 9.45765 9.35272 9.7753C9.03506 10.093 8.62814 10.3063 8.18619 10.3868C7.74423 10.4673 7.28823 10.4112 6.87895 10.226L4.33382 12.7712C4.18729 12.9177 3.98856 13 3.78133 13C3.57411 13 3.37538 12.9177 3.22885 12.7712C3.08232 12.6246 3 12.4259 3 12.2187C3 12.0114 3.08232 11.8127 3.22885 11.6662L5.77397 9.12105C5.58877 8.71177 5.53269 8.25577 5.61321 7.81381C5.69374 7.37186 5.90704 6.96494 6.2247 6.64728C6.54236 6.32962 6.94928 6.11632 7.39123 6.0358C7.83319 5.95527 8.28919 6.01135 8.69847 6.19655L7.30989 7.58514Z" stroke="#0F172A" stroke-width="0.89458" stroke-linecap="round" stroke-linejoin="round"/>
</svg>
