<svg width="16" height="16" viewBox="0 0 16 16" fill="none" xmlns="http://www.w3.org/2000/svg">
<path d="M8 8.66666V10.6667M8 10.6667C8.35362 10.6667 8.69276 10.8071 8.94281 11.0572C9.19286 11.3072 9.33333 11.6464 9.33333 12M8 10.6667C7.64638 10.6667 7.30724 10.8071 7.05719 11.0572C6.80714 11.3072 6.66667 11.6464 6.66667 12M6.66667 12C6.66667 12.3536 6.80714 12.6928 7.05719 12.9428C7.30724 13.1928 7.64638 13.3333 8 13.3333C8.35362 13.3333 8.69276 13.1928 8.94281 12.9428C9.19286 12.6928 9.33333 12.3536 9.33333 12M6.66667 12H2M9.33333 12H14M3.33333 6.59792C3.33333 5.45525 4.30667 4.52858 5.50667 4.52858C5.69 3.71525 6.34333 3.05192 7.22133 2.78792C8.09933 2.52325 9.068 2.69858 9.762 3.24792C10.4567 3.79592 10.7713 4.63458 10.588 5.44792H11.05C11.4778 5.44703 11.8884 5.61607 12.1915 5.91786C12.4947 6.21965 12.6656 6.62948 12.6667 7.05725C12.6656 7.48502 12.4947 7.89485 12.1915 8.19664C11.8884 8.49843 11.4778 8.66747 11.05 8.66658H5.50667C4.30667 8.66658 3.33333 7.73992 3.33333 6.59792Z" stroke="#0F172A" stroke-linecap="round" stroke-linejoin="round"/>
</svg>
