<svg width="22" height="22" viewBox="0 0 22 22" fill="none" xmlns="http://www.w3.org/2000/svg">
<path d="M4.58333 17.4167L7.11058 10.6783C7.17607 10.5036 7.2933 10.353 7.44661 10.2467C7.59992 10.1404 7.78202 10.0834 7.96858 10.0834H19.25M4.58333 17.4167H17.4405C17.867 17.4166 18.2801 17.2678 18.6087 16.9959C18.9373 16.724 19.1609 16.346 19.2408 15.9271L20.1538 11.1504C20.1757 11.0191 20.1686 10.8847 20.1333 10.7564C20.0979 10.6281 20.035 10.5091 19.949 10.4075C19.863 10.306 19.7559 10.2244 19.6352 10.1684C19.5145 10.1124 19.3831 10.0834 19.25 10.0834M4.58333 17.4167C4.0971 17.4167 3.63079 17.2235 3.28697 16.8797C2.94315 16.5359 2.75 16.0696 2.75 15.5834V5.50002C2.75 5.01379 2.94315 4.54747 3.28697 4.20366C3.63079 3.85984 4.0971 3.66669 4.58333 3.66669H8.25L11 6.41669H17.4167C17.9029 6.41669 18.3692 6.60984 18.713 6.95366C19.0568 7.29747 19.25 7.76379 19.25 8.25002V10.0834" stroke="#64748B" stroke-width="1.3" stroke-linecap="round" stroke-linejoin="round"/>
</svg>
