<svg width="16" height="16" viewBox="0 0 16 16" fill="none" xmlns="http://www.w3.org/2000/svg">
<path d="M13.476 8.00004H2.49939M4.49935 10.3334H4.50518M6.83268 10.3334H6.83852M4.17852 3.98087L2.16602 8.00004V11.5C2.16602 11.8095 2.28893 12.1062 2.50772 12.325C2.72652 12.5438 3.02326 12.6667 3.33268 12.6667H12.666C12.9754 12.6667 13.2722 12.5438 13.491 12.325C13.7098 12.1062 13.8327 11.8095 13.8327 11.5V8.00004L11.8202 3.98087C11.7236 3.7865 11.5747 3.62292 11.3902 3.50854C11.2058 3.39415 10.9931 3.33349 10.776 3.33337H5.22268C5.00563 3.33349 4.79292 3.39415 4.60846 3.50854C4.424 3.62292 4.2751 3.7865 4.17852 3.98087Z" stroke="black" stroke-linecap="round" stroke-linejoin="round"/>
</svg>
