<svg width="16" height="16" viewBox="0 0 16 16" fill="none" xmlns="http://www.w3.org/2000/svg">
<path d="M4 7.99999H12C12.5304 7.99999 13.0391 7.78928 13.4142 7.4142C13.7893 7.03913 14 6.53042 14 5.99999V4.66666C14 4.13622 13.7893 3.62752 13.4142 3.25244C13.0391 2.87737 12.5304 2.66666 12 2.66666H4C3.46957 2.66666 2.96086 2.87737 2.58579 3.25244C2.21071 3.62752 2 4.13622 2 4.66666V5.99999C2 6.53042 2.21071 7.03913 2.58579 7.4142C2.96086 7.78928 3.46957 7.99999 4 7.99999ZM4 7.99999C3.46957 7.99999 2.96086 8.2107 2.58579 8.58578C2.21071 8.96085 2 9.46956 2 9.99999V11.3333C2 11.8638 2.21071 12.3725 2.58579 12.7475C2.96086 13.1226 3.46957 13.3333 4 13.3333H8M4 7.99999H11M12 13.3333C11.6464 13.3333 11.3072 13.1928 11.0572 12.9428C10.8071 12.6928 10.6667 12.3536 10.6667 12C10.6667 11.6464 10.8071 11.3072 11.0572 11.0572C11.3072 10.8071 11.6464 10.6667 12 10.6667M12 13.3333C12.3536 13.3333 12.6928 13.1928 12.9428 12.9428C13.1929 12.6928 13.3333 12.3536 13.3333 12C13.3333 11.6464 13.1929 11.3072 12.9428 11.0572C12.6928 10.8071 12.3536 10.6667 12 10.6667M12 13.3333V14.3333M12 10.6667V9.66666M14.0213 10.8333L13.1553 11.3333M10.8468 12.6667L9.98014 13.1667M9.98014 10.8333L10.8468 11.3333M13.1553 12.6667L14.0219 13.1667M4.66667 5.33332V5.33999M4.66667 10.6667V10.6733" stroke="black" stroke-linecap="round" stroke-linejoin="round"/>
</svg>
