<svg width="16" height="16" viewBox="0 0 16 16" fill="none" xmlns="http://www.w3.org/2000/svg">
<path d="M3.99935 5.99998H7.99935M2.66602 3.33331H5.33268M3.99935 3.33331V10.6666C3.99935 10.8435 4.06959 11.013 4.19461 11.1381C4.31964 11.2631 4.4892 11.3333 4.66602 11.3333H7.99935M7.99935 5.33331C7.99935 5.1565 8.06959 4.98693 8.19461 4.86191C8.31964 4.73688 8.4892 4.66665 8.66602 4.66665H12.666C12.8428 4.66665 13.0124 4.73688 13.1374 4.86191C13.2624 4.98693 13.3327 5.1565 13.3327 5.33331V6.66665C13.3327 6.84346 13.2624 7.01303 13.1374 7.13805C13.0124 7.26307 12.8428 7.33331 12.666 7.33331H8.66602C8.4892 7.33331 8.31964 7.26307 8.19461 7.13805C8.06959 7.01303 7.99935 6.84346 7.99935 6.66665V5.33331ZM7.99935 10.6666C7.99935 10.4898 8.06959 10.3203 8.19461 10.1952C8.31964 10.0702 8.4892 9.99998 8.66602 9.99998H12.666C12.8428 9.99998 13.0124 10.0702 13.1374 10.1952C13.2624 10.3203 13.3327 10.4898 13.3327 10.6666V12C13.3327 12.1768 13.2624 12.3464 13.1374 12.4714C13.0124 12.5964 12.8428 12.6666 12.666 12.6666H8.66602C8.4892 12.6666 8.31964 12.5964 8.19461 12.4714C8.06959 12.3464 7.99935 12.1768 7.99935 12V10.6666Z" stroke="#0F172A" stroke-linecap="round" stroke-linejoin="round"/>
</svg>
