<svg width="16" height="16" viewBox="0 0 16 16" fill="none" xmlns="http://www.w3.org/2000/svg">
<path d="M4.66667 8C4.66667 7.11595 5.01786 6.2681 5.64298 5.64298C6.2681 5.01786 7.11595 4.66667 8 4.66667M8 11.3333C8.88406 11.3333 9.7319 10.9821 10.357 10.357C10.9821 9.7319 11.3333 8.88406 11.3333 8M2 8C2 8.78793 2.15519 9.56815 2.45672 10.2961C2.75825 11.0241 3.20021 11.6855 3.75736 12.2426C4.31451 12.7998 4.97595 13.2417 5.7039 13.5433C6.43185 13.8448 7.21207 14 8 14C8.78793 14 9.56815 13.8448 10.2961 13.5433C11.0241 13.2417 11.6855 12.7998 12.2426 12.2426C12.7998 11.6855 13.2417 11.0241 13.5433 10.2961C13.8448 9.56815 14 8.78793 14 8C14 7.21207 13.8448 6.43185 13.5433 5.7039C13.2417 4.97595 12.7998 4.31451 12.2426 3.75736C11.6855 3.20021 11.0241 2.75825 10.2961 2.45672C9.56815 2.15519 8.78793 2 8 2C7.21207 2 6.43185 2.15519 5.7039 2.45672C4.97595 2.75825 4.31451 3.20021 3.75736 3.75736C3.20021 4.31451 2.75825 4.97595 2.45672 5.7039C2.15519 6.43185 2 7.21207 2 8ZM7.33333 8C7.33333 8.17681 7.40357 8.34638 7.5286 8.4714C7.65362 8.59643 7.82319 8.66667 8 8.66667C8.17681 8.66667 8.34638 8.59643 8.4714 8.4714C8.59643 8.34638 8.66667 8.17681 8.66667 8C8.66667 7.82319 8.59643 7.65362 8.4714 7.5286C8.34638 7.40357 8.17681 7.33333 8 7.33333C7.82319 7.33333 7.65362 7.40357 7.5286 7.5286C7.40357 7.65362 7.33333 7.82319 7.33333 8Z" stroke="#0F172A" stroke-linecap="round" stroke-linejoin="round"/>
</svg>
