<svg width="16" height="16" viewBox="0 0 16 16" fill="none" xmlns="http://www.w3.org/2000/svg">
<path d="M13.25 2.16666L12.0833 3.33332M12.0833 3.33332L13.8333 5.08332L11.7917 7.12499L10.0417 5.37499M12.0833 3.33332L10.0417 5.37499M7.64416 7.77249C7.34697 7.47129 6.99313 7.23185 6.60303 7.06797C6.21292 6.90408 5.79425 6.81897 5.37112 6.81756C4.94799 6.81614 4.52876 6.89844 4.13756 7.05971C3.74637 7.22098 3.39094 7.45804 3.09174 7.75724C2.79254 8.05644 2.55548 8.41187 2.39421 8.80306C2.23293 9.19426 2.15064 9.61349 2.15206 10.0366C2.15347 10.4598 2.23858 10.8784 2.40247 11.2685C2.56635 11.6586 2.80579 12.0125 3.10699 12.3097C3.71209 12.8941 4.52252 13.2175 5.36373 13.2102C6.20495 13.2028 7.00964 12.8654 7.60449 12.2706C8.19934 11.6757 8.53676 10.871 8.54407 10.0298C8.55138 9.1886 8.228 8.37817 7.64357 7.77307L7.64416 7.77249ZM7.64416 7.77249L10.0417 5.37499" stroke="black" stroke-linecap="round" stroke-linejoin="round"/>
</svg>
