<svg width="16" height="16" viewBox="0 0 16 16" fill="none" xmlns="http://www.w3.org/2000/svg">
<path d="M13.8327 7.99996C13.8327 11.2216 11.221 13.8333 7.99935 13.8333M13.8327 7.99996C13.8327 4.7783 11.221 2.16663 7.99935 2.16663M13.8327 7.99996H2.16602M7.99935 13.8333C4.77769 13.8333 2.16602 11.2216 2.16602 7.99996M7.99935 13.8333C9.45843 12.2359 10.2876 10.1629 10.3327 7.99996C10.2876 5.83698 9.45843 3.764 7.99935 2.16663M7.99935 13.8333C6.54027 12.2359 5.71108 10.1629 5.66602 7.99996C5.71108 5.83698 6.54027 3.764 7.99935 2.16663M2.16602 7.99996C2.16602 4.7783 4.77769 2.16663 7.99935 2.16663" stroke="black" stroke-linecap="round" stroke-linejoin="round"/>
</svg>
