<svg width="16" height="16" viewBox="0 0 16 16" fill="none" xmlns="http://www.w3.org/2000/svg">
<path d="M8.00033 10.6667C7.46989 10.6667 6.96118 10.456 6.58611 10.0809C6.21104 9.70581 6.00033 9.1971 6.00033 8.66667C6.00033 8.13623 6.21104 7.62753 6.58611 7.25245C6.96118 6.87738 7.46989 6.66667 8.00033 6.66667M8.00033 10.6667C8.53076 10.6667 9.03947 10.456 9.41454 10.0809C9.78961 9.70581 10.0003 9.1971 10.0003 8.66667C10.0003 8.13623 9.78961 7.62753 9.41454 7.25245C9.03947 6.87738 8.53076 6.66667 8.00033 6.66667M8.00033 10.6667V12.6667M8.00033 6.66667V2M8.00033 12.6667C8.17714 12.6667 8.34671 12.7369 8.47173 12.8619C8.59675 12.987 8.66699 13.1565 8.66699 13.3333C8.66699 13.5101 8.59675 13.6797 8.47173 13.8047C8.34671 13.9298 8.17714 14 8.00033 14C7.82351 14 7.65395 13.9298 7.52892 13.8047C7.4039 13.6797 7.33366 13.5101 7.33366 13.3333C7.33366 13.1565 7.4039 12.987 7.52892 12.8619C7.65395 12.7369 7.82351 12.6667 8.00033 12.6667ZM8.00033 2L6.00033 4M8.00033 2L10.0003 4M9.92969 8.15129L14.003 6.66862M14.003 6.66862L11.4396 5.47331M14.003 6.66862L12.8076 9.23197M6.06758 8.14262L2.01758 6.66862M2.01758 6.66862L4.58091 5.47331M2.01758 6.66862L3.21291 9.23197" stroke="#0F172A" stroke-linecap="round" stroke-linejoin="round"/>
</svg>
