<svg width="16" height="16" viewBox="0 0 16 16" fill="none" xmlns="http://www.w3.org/2000/svg">
<g clip-path="url(#clip0_2548_6313)">
<path d="M9.79999 4.2C9.67783 4.32462 9.60941 4.49216 9.60941 4.66667C9.60941 4.84117 9.67783 5.00871 9.79999 5.13333L10.8667 6.2C10.9913 6.32215 11.1588 6.39057 11.3333 6.39057C11.5078 6.39057 11.6754 6.32215 11.8 6.2L13.8707 4.13C14.084 3.91533 14.446 3.98333 14.526 4.27533C14.7274 5.00792 14.716 5.78271 14.4932 6.50906C14.2703 7.23541 13.8452 7.88327 13.2676 8.37682C12.69 8.87038 11.9837 9.18923 11.2315 9.29604C10.4793 9.40286 9.71218 9.29324 9.01999 8.98L3.74665 14.2533C3.48144 14.5185 3.12176 14.6674 2.74675 14.6673C2.37174 14.6672 2.01211 14.5182 1.74699 14.253C1.48186 13.9878 1.33295 13.6281 1.33301 13.2531C1.33307 12.8781 1.4821 12.5185 1.74732 12.2533L7.02065 6.98C6.70741 6.28781 6.59779 5.52072 6.70461 4.7685C6.81143 4.01628 7.13027 3.31003 7.62383 2.73241C8.11738 2.15479 8.76524 1.72967 9.49159 1.50682C10.2179 1.28396 10.9927 1.27258 11.7253 1.474C12.0173 1.554 12.0853 1.91533 11.8713 2.13L9.79999 4.2Z" stroke="black" stroke-linecap="round" stroke-linejoin="round"/>
</g>
<defs>
<clipPath id="clip0_2548_6313">
<rect width="16" height="16" fill="white"/>
</clipPath>
</defs>
</svg>
