<svg width="16" height="16" viewBox="0 0 16 16" fill="none" xmlns="http://www.w3.org/2000/svg">
<path d="M3.91669 10.3333V8.58332C3.91669 8.42861 3.97815 8.28024 4.08754 8.17084C4.19694 8.06145 4.34531 7.99999 4.50002 7.99999H11.5C11.6547 7.99999 11.8031 8.06145 11.9125 8.17084C12.0219 8.28024 12.0834 8.42861 12.0834 8.58332V10.3333M8.00002 7.99999V5.66666M10.9167 10.3333H13.25C13.5722 10.3333 13.8334 10.5945 13.8334 10.9167V13.25C13.8334 13.5722 13.5722 13.8333 13.25 13.8333H10.9167C10.5945 13.8333 10.3334 13.5722 10.3334 13.25V10.9167C10.3334 10.5945 10.5945 10.3333 10.9167 10.3333ZM2.75002 10.3333H5.08335C5.40552 10.3333 5.66669 10.5945 5.66669 10.9167V13.25C5.66669 13.5722 5.40552 13.8333 5.08335 13.8333H2.75002C2.42785 13.8333 2.16669 13.5722 2.16669 13.25V10.9167C2.16669 10.5945 2.42785 10.3333 2.75002 10.3333ZM6.83335 2.16666H9.16669C9.48885 2.16666 9.75002 2.42782 9.75002 2.74999V5.08332C9.75002 5.40549 9.48885 5.66666 9.16669 5.66666H6.83335C6.51119 5.66666 6.25002 5.40549 6.25002 5.08332V2.74999C6.25002 2.42782 6.51119 2.16666 6.83335 2.16666Z" stroke="black" stroke-linecap="round" stroke-linejoin="round"/>
</svg>
