<svg width="16" height="16" viewBox="0 0 16 16" fill="none" xmlns="http://www.w3.org/2000/svg">
<path d="M5.99935 11.3333V12C5.99935 12.5304 6.21006 13.0391 6.58514 13.4142C6.96021 13.7893 7.46892 14 7.99935 14C8.52978 14 9.03849 13.7893 9.41356 13.4142C9.78864 13.0391 9.99935 12.5304 9.99935 12V11.3333M6.66602 3.33333C6.66602 2.97971 6.80649 2.64057 7.05654 2.39052C7.30659 2.14048 7.64573 2 7.99935 2C8.35297 2 8.69211 2.14048 8.94216 2.39052C9.19221 2.64057 9.33268 2.97971 9.33268 3.33333C10.0983 3.69535 10.751 4.25888 11.2207 4.96353C11.6905 5.66818 11.9596 6.48738 11.9993 7.33333V9.33333C12.0495 9.7478 12.1963 10.1447 12.4279 10.4921C12.6595 10.8395 12.9694 11.1276 13.3327 11.3333H2.66602C3.02931 11.1276 3.33922 10.8395 3.57081 10.4921C3.80239 10.1447 3.94918 9.7478 3.99935 9.33333V7.33333C4.03906 6.48738 4.30822 5.66818 4.77798 4.96353C5.24775 4.25888 5.90041 3.69535 6.66602 3.33333Z" stroke="#0F172A" stroke-linecap="round" stroke-linejoin="round"/>
<path d="M12 2C12 2.53043 12.2107 3.03914 12.5858 3.41421C12.9609 3.78929 13.4696 4 14 4C14.5304 4 15.0391 3.78929 15.4142 3.41421C15.7893 3.03914 16 2.53043 16 2C16 1.46957 15.7893 0.960859 15.4142 0.585787C15.0391 0.210714 14.5304 0 14 0C13.4696 0 12.9609 0.210714 12.5858 0.585787C12.2107 0.960859 12 1.46957 12 2Z" fill="#DC2626"/>
</svg>
