<svg width="16" height="16" viewBox="0 0 16 16" fill="none" xmlns="http://www.w3.org/2000/svg">
<path d="M5.33398 3.33329C5.33398 3.5101 5.40422 3.67967 5.52925 3.8047C5.65427 3.92972 5.82384 3.99996 6.00065 3.99996C6.17746 3.99996 6.34703 3.92972 6.47206 3.8047C6.59708 3.67967 6.66732 3.5101 6.66732 3.33329C6.66732 3.15648 6.59708 2.98691 6.47206 2.86189C6.34703 2.73686 6.17746 2.66663 6.00065 2.66663C5.82384 2.66663 5.65427 2.73686 5.52925 2.86189C5.40422 2.98691 5.33398 3.15648 5.33398 3.33329Z" stroke="#0F172A" stroke-linecap="round" stroke-linejoin="round"/>
<path d="M5.33398 7.99996C5.33398 8.17677 5.40422 8.34634 5.52925 8.47136C5.65427 8.59639 5.82384 8.66663 6.00065 8.66663C6.17746 8.66663 6.34703 8.59639 6.47206 8.47136C6.59708 8.34634 6.66732 8.17677 6.66732 7.99996C6.66732 7.82315 6.59708 7.65358 6.47206 7.52856C6.34703 7.40353 6.17746 7.33329 6.00065 7.33329C5.82384 7.33329 5.65427 7.40353 5.52925 7.52856C5.40422 7.65358 5.33398 7.82315 5.33398 7.99996Z" stroke="#0F172A" stroke-linecap="round" stroke-linejoin="round"/>
<path d="M5.33398 12.6666C5.33398 12.8434 5.40422 13.013 5.52925 13.138C5.65427 13.2631 5.82384 13.3333 6.00065 13.3333C6.17746 13.3333 6.34703 13.2631 6.47206 13.138C6.59708 13.013 6.66732 12.8434 6.66732 12.6666C6.66732 12.4898 6.59708 12.3202 6.47206 12.1952C6.34703 12.0702 6.17746 12 6.00065 12C5.82384 12 5.65427 12.0702 5.52925 12.1952C5.40422 12.3202 5.33398 12.4898 5.33398 12.6666Z" stroke="#0F172A" stroke-linecap="round" stroke-linejoin="round"/>
<path d="M9.33398 3.33329C9.33398 3.5101 9.40422 3.67967 9.52925 3.8047C9.65427 3.92972 9.82384 3.99996 10.0007 3.99996C10.1775 3.99996 10.347 3.92972 10.4721 3.8047C10.5971 3.67967 10.6673 3.5101 10.6673 3.33329C10.6673 3.15648 10.5971 2.98691 10.4721 2.86189C10.347 2.73686 10.1775 2.66663 10.0007 2.66663C9.82384 2.66663 9.65427 2.73686 9.52925 2.86189C9.40422 2.98691 9.33398 3.15648 9.33398 3.33329Z" stroke="#0F172A" stroke-linecap="round" stroke-linejoin="round"/>
<path d="M9.33398 7.99996C9.33398 8.17677 9.40422 8.34634 9.52925 8.47136C9.65427 8.59639 9.82384 8.66663 10.0007 8.66663C10.1775 8.66663 10.347 8.59639 10.4721 8.47136C10.5971 8.34634 10.6673 8.17677 10.6673 7.99996C10.6673 7.82315 10.5971 7.65358 10.4721 7.52856C10.347 7.40353 10.1775 7.33329 10.0007 7.33329C9.82384 7.33329 9.65427 7.40353 9.52925 7.52856C9.40422 7.65358 9.33398 7.82315 9.33398 7.99996Z" stroke="#0F172A" stroke-linecap="round" stroke-linejoin="round"/>
<path d="M9.33398 12.6666C9.33398 12.8434 9.40422 13.013 9.52925 13.138C9.65427 13.2631 9.82384 13.3333 10.0007 13.3333C10.1775 13.3333 10.347 13.2631 10.4721 13.138C10.5971 13.013 10.6673 12.8434 10.6673 12.6666C10.6673 12.4898 10.5971 12.3202 10.4721 12.1952C10.347 12.0702 10.1775 12 10.0007 12C9.82384 12 9.65427 12.0702 9.52925 12.1952C9.40422 12.3202 9.33398 12.4898 9.33398 12.6666Z" stroke="#0F172A" stroke-linecap="round" stroke-linejoin="round"/>
</svg>
