<svg width="16" height="16" viewBox="0 0 16 16" fill="none" xmlns="http://www.w3.org/2000/svg">
<path d="M8 5.33332C7.64638 5.33332 7.30724 5.19285 7.05719 4.9428C6.80714 4.69275 6.66667 4.35361 6.66667 3.99999C6.66667 3.64637 6.80714 3.30723 7.05719 3.05718C7.30724 2.80713 7.64638 2.66666 8 2.66666C8.35362 2.66666 8.69276 2.80713 8.94281 3.05718C9.19286 3.30723 9.33333 3.64637 9.33333 3.99999C9.33333 4.35361 9.19286 4.69275 8.94281 4.9428C8.69276 5.19285 8.35362 5.33332 8 5.33332ZM8 5.33332V10.6667M8 10.6667C8.35362 10.6667 8.69276 10.8071 8.94281 11.0572C9.19286 11.3072 9.33333 11.6464 9.33333 12C9.33333 12.3536 9.19286 12.6928 8.94281 12.9428C8.69276 13.1928 8.35362 13.3333 8 13.3333C7.64638 13.3333 7.30724 13.1928 7.05719 12.9428C6.80714 12.6928 6.66667 12.3536 6.66667 12C6.66667 11.6464 6.80714 11.3072 7.05719 11.0572C7.30724 10.8071 7.64638 10.6667 8 10.6667ZM4.21061 8.33059L7.12261 5.00259M11.7892 8.33056L8.87858 5.0039M4.66667 9.33332C4.66667 8.9797 4.52619 8.64056 4.27614 8.39051C4.02609 8.14047 3.68696 7.99999 3.33333 7.99999C2.97971 7.99999 2.64057 8.14047 2.39052 8.39051C2.14048 8.64056 2 8.9797 2 9.33332C2 9.68695 2.14048 10.0261 2.39052 10.2761C2.64057 10.5262 2.97971 10.6667 3.33333 10.6667C3.68696 10.6667 4.02609 10.5262 4.27614 10.2761C4.52619 10.0261 4.66667 9.68695 4.66667 9.33332ZM14 9.33332C14 8.9797 13.8595 8.64056 13.6095 8.39051C13.3594 8.14047 13.0203 7.99999 12.6667 7.99999C12.313 7.99999 11.9739 8.14047 11.7239 8.39051C11.4738 8.64056 11.3333 8.9797 11.3333 9.33332C11.3333 9.68695 11.4738 10.0261 11.7239 10.2761C11.9739 10.5262 12.313 10.6667 12.6667 10.6667C13.0203 10.6667 13.3594 10.5262 13.6095 10.2761C13.8595 10.0261 14 9.68695 14 9.33332Z" stroke="#0F172A" stroke-linecap="round" stroke-linejoin="round"/>
</svg>
