<svg width="16" height="16" viewBox="0 0 16 16" fill="none" xmlns="http://www.w3.org/2000/svg">
<path d="M3.12223 4.1389H5.1389C5.31719 4.1389 5.48817 4.06808 5.61423 3.94201C5.7403 3.81595 5.81112 3.64496 5.81112 3.46668V2.79446C5.81112 2.43789 5.95277 2.09592 6.2049 1.84379C6.45703 1.59166 6.799 1.45001 7.15557 1.45001C7.51214 1.45001 7.8541 1.59166 8.10623 1.84379C8.35837 2.09592 8.50001 2.43789 8.50001 2.79446V3.46668C8.50001 3.64496 8.57084 3.81595 8.6969 3.94201C8.82297 4.06808 8.99395 4.1389 9.17223 4.1389H11.1889C11.3672 4.1389 11.5382 4.20972 11.6642 4.33579C11.7903 4.46186 11.8611 4.63284 11.8611 4.81112V6.82779C11.8611 7.00607 11.9319 7.17706 12.058 7.30312C12.1841 7.42919 12.3551 7.50001 12.5333 7.50001H13.2056C13.5621 7.50001 13.9041 7.64166 14.1562 7.89379C14.4084 8.14592 14.55 8.48789 14.55 8.84446C14.55 9.20103 14.4084 9.54299 14.1562 9.79512C13.9041 10.0473 13.5621 10.1889 13.2056 10.1889H12.5333C12.3551 10.1889 12.1841 10.2597 12.058 10.3858C11.9319 10.5119 11.8611 10.6828 11.8611 10.8611V12.8778C11.8611 13.0561 11.7903 13.2271 11.6642 13.3531C11.5382 13.4792 11.3672 13.55 11.1889 13.55H9.17223C8.99395 13.55 8.82297 13.4792 8.6969 13.3531C8.57084 13.2271 8.50001 13.0561 8.50001 12.8778V12.2056C8.50001 11.849 8.35837 11.507 8.10623 11.2549C7.8541 11.0028 7.51214 10.8611 7.15557 10.8611C6.799 10.8611 6.45703 11.0028 6.2049 11.2549C5.95277 11.507 5.81112 11.849 5.81112 12.2056V12.8778C5.81112 13.0561 5.7403 13.2271 5.61423 13.3531C5.48817 13.4792 5.31719 13.55 5.1389 13.55H3.12223C2.94395 13.55 2.77297 13.4792 2.6469 13.3531C2.52084 13.2271 2.45001 13.0561 2.45001 12.8778V10.8611C2.45001 10.6828 2.52084 10.5119 2.6469 10.3858C2.77297 10.2597 2.94395 10.1889 3.12223 10.1889H3.79446C4.15103 10.1889 4.49299 10.0473 4.74512 9.79512C4.99725 9.54299 5.1389 9.20103 5.1389 8.84446C5.1389 8.48789 4.99725 8.14592 4.74512 7.89379C4.49299 7.64166 4.15103 7.50001 3.79446 7.50001H3.12223C2.94395 7.50001 2.77297 7.42919 2.6469 7.30312C2.52084 7.17706 2.45001 7.00607 2.45001 6.82779V4.81112C2.45001 4.63284 2.52084 4.46186 2.6469 4.33579C2.77297 4.20972 2.94395 4.1389 3.12223 4.1389Z" stroke="black" stroke-linecap="round" stroke-linejoin="round"/>
</svg>
