<svg width="16" height="16" viewBox="0 0 16 16" fill="none" xmlns="http://www.w3.org/2000/svg">
<path d="M13.9491 8.78274C13.8075 9.86271 13.3746 10.8838 12.6967 11.7364C12.0189 12.589 11.1218 13.241 10.1016 13.6225C9.08135 14.004 7.97652 14.1006 6.90558 13.9019C5.83463 13.7033 4.83797 13.2168 4.02249 12.4947C3.207 11.7727 2.60345 10.8422 2.27657 9.80323C1.94969 8.76422 1.9118 7.65582 2.16698 6.59692C2.42216 5.53801 2.96077 4.56854 3.72505 3.79248C4.48934 3.01642 5.45046 2.46305 6.50534 2.19171C9.4296 1.4417 12.4566 2.94696 13.5741 5.75197M13.9994 2.00196V5.75197H10.2494" stroke="black" stroke-linecap="round" stroke-linejoin="round"/>
</svg>
