<svg width="16" height="16" viewBox="0 0 16 16" fill="none" xmlns="http://www.w3.org/2000/svg">
<path d="M7.99919 8C7.82238 8 7.65281 7.92976 7.52778 7.80474C7.40276 7.67971 7.33252 7.51014 7.33252 7.33333C7.33252 7.15652 7.40276 6.98695 7.52778 6.86193C7.65281 6.7369 7.82238 6.66667 7.99919 6.66667C8.176 6.66667 8.34557 6.7369 8.47059 6.86193C8.59562 6.98695 8.66585 7.15652 8.66585 7.33333C8.66585 7.51014 8.59562 7.67971 8.47059 7.80474C8.34557 7.92976 8.176 8 7.99919 8ZM7.99919 8V9.66667M7.99924 2C9.55646 3.37772 11.5889 4.09504 13.6659 4C13.9683 5.02868 14.0608 6.10764 13.938 7.17279C13.8151 8.23793 13.4795 9.26751 12.9508 10.2004C12.4222 11.1332 11.7115 11.9503 10.8609 12.603C10.0103 13.2557 9.0371 13.7308 7.99924 14C6.96138 13.7308 5.98823 13.2557 5.1376 12.603C4.28698 11.9503 3.57625 11.1332 3.04764 10.2004C2.51903 9.26751 2.18333 8.23793 2.06049 7.17279C1.93765 6.10764 2.03018 5.02868 2.33257 4C4.40959 4.09504 6.44202 3.37772 7.99924 2Z" stroke="#0F172A" stroke-linecap="round" stroke-linejoin="round"/>
</svg>
