<svg width="16" height="16" viewBox="0 0 16 16" fill="none" xmlns="http://www.w3.org/2000/svg">
<path d="M5.1716 8H10.8285M3.75739 12.2426C4.31454 12.7998 4.97598 13.2417 5.70393 13.5433C6.43188 13.8448 7.2121 14 8.00003 14C8.78796 14 9.56818 13.8448 10.2961 13.5433C11.0241 13.2417 11.6855 12.7998 12.2427 12.2426C12.7998 11.6855 13.2418 11.0241 13.5433 10.2961C13.8448 9.56815 14 8.78793 14 8C14 7.21207 13.8448 6.43185 13.5433 5.7039C13.2418 4.97595 12.7998 4.31451 12.2427 3.75736C11.6855 3.20021 11.0241 2.75825 10.2961 2.45672C9.56818 2.15519 8.78796 2 8.00003 2C7.2121 2 6.43188 2.15519 5.70393 2.45672C4.97598 2.75825 4.31454 3.20021 3.75739 3.75736C3.20024 4.31451 2.75828 4.97595 2.45675 5.7039C2.15523 6.43185 2.00003 7.21207 2.00003 8C2.00003 8.78793 2.15523 9.56815 2.45675 10.2961C2.75828 11.0241 3.20024 11.6855 3.75739 12.2426Z" stroke="#0F172A" stroke-linecap="round" stroke-linejoin="round"/>
</svg>
