<svg width="16" height="16" viewBox="0 0 16 16" fill="none" xmlns="http://www.w3.org/2000/svg">
<path d="M5.7066 2.46029C4.97865 2.76161 4.31717 3.20335 3.75993 3.76029M2.46 5.70638C2.1577 6.43325 2.0014 7.21249 2 7.99971M2.45996 10.2936C2.76129 11.0216 3.20302 11.683 3.75996 12.2403M5.70671 13.5397C6.43357 13.842 7.21282 13.9983 8.00004 13.9997M10.2933 13.5402C11.0212 13.2389 11.6827 12.7972 12.24 12.2402M13.54 10.2933C13.8423 9.56647 13.9986 8.78722 14 8M13.5401 5.70643C13.2387 4.97849 12.797 4.31701 12.2401 3.75977M10.2933 2.46C9.56647 2.1577 8.78722 2.0014 8 2M6 8L7.33333 9.33333L10 6.66667" stroke="black" stroke-linecap="round" stroke-linejoin="round"/>
</svg>
