<svg width="16" height="16" viewBox="0 0 16 16" fill="none" xmlns="http://www.w3.org/2000/svg">
<path d="M2.66602 4C2.66602 5.10467 5.05402 6 7.99935 6C10.9447 6 13.3327 5.10467 13.3327 4M2.66602 4C2.66602 2.89533 5.05402 2 7.99935 2C10.9447 2 13.3327 2.89533 13.3327 4M2.66602 4V8M13.3327 4V7.66667M2.66602 8C2.66602 9.10467 5.05402 10 7.99935 10C8.13935 10 8.27935 9.998 8.41668 9.99333M2.66602 8V12C2.66602 13.1047 5.05402 14 7.99935 14M12.6667 14C12.313 14 11.9739 13.8595 11.7239 13.6095C11.4738 13.3594 11.3333 13.0203 11.3333 12.6667C11.3333 12.313 11.4738 11.9739 11.7239 11.7239C11.9739 11.4738 12.313 11.3333 12.6667 11.3333M12.6667 14C13.0203 14 13.3594 13.8595 13.6095 13.6095C13.8595 13.3594 14 13.0203 14 12.6667C14 12.313 13.8595 11.9739 13.6095 11.7239C13.3594 11.4738 13.0203 11.3333 12.6667 11.3333M12.6667 14V15M12.6667 11.3333V10.3333M14.6873 11.5L13.8213 12M11.5127 13.3333L10.646 13.8333M10.646 11.5L11.5127 12M13.8213 13.3333L14.688 13.8333" stroke="#0F172A" stroke-linecap="round" stroke-linejoin="round"/>
</svg>
