<svg width="16" height="16" viewBox="0 0 16 16" fill="none" xmlns="http://www.w3.org/2000/svg">
<path d="M2.66602 4C2.66602 5.10467 5.05402 6 7.99935 6C10.9447 6 13.3327 5.10467 13.3327 4M2.66602 4C2.66602 2.89533 5.05402 2 7.99935 2C10.9447 2 13.3327 2.89533 13.3327 4M2.66602 4V8M13.3327 4V7.66667M2.66602 8C2.66602 9.10467 5.05402 10 7.99935 10C8.13935 10 8.27935 9.998 8.41668 9.99333M2.66602 8V12C2.66602 13.1047 5.05402 14 7.99935 14" stroke="#0F172A" stroke-linecap="round" stroke-linejoin="round"/>
<path d="M14 14L12.6667 12.6667M10 11.5556C10 11.7598 10.0402 11.9621 10.1184 12.1508C10.1966 12.3396 10.3112 12.5111 10.4556 12.6555C10.6001 12.7999 10.7715 12.9145 10.9603 12.9927C11.149 13.0709 11.3513 13.1111 11.5556 13.1111C11.7598 13.1111 11.9621 13.0709 12.1508 12.9927C12.3396 12.9145 12.5111 12.7999 12.6555 12.6555C12.7999 12.5111 12.9145 12.3396 12.9927 12.1508C13.0709 11.9621 13.1111 11.7598 13.1111 11.5556C13.1111 11.3513 13.0709 11.149 12.9927 10.9603C12.9145 10.7715 12.7999 10.6001 12.6555 10.4556C12.5111 10.3112 12.3396 10.1966 12.1508 10.1184C11.9621 10.0402 11.7598 10 11.5556 10C11.3513 10 11.149 10.0402 10.9603 10.1184C10.7715 10.1966 10.6001 10.3112 10.4556 10.4556C10.3112 10.6001 10.1966 10.7715 10.1184 10.9603C10.0402 11.149 10 11.3513 10 11.5556Z" stroke="#0F172A" stroke-linecap="round" stroke-linejoin="round"/>
</svg>
