<svg width="16" height="16" viewBox="0 0 16 16" fill="none" xmlns="http://www.w3.org/2000/svg">
<path d="M8 5.33333V8M8 10.6667H8.00667M13.25 4.17972C13.7167 4.44505 14.0033 4.94172 14 5.47839V10.3344C14 10.8737 13.7047 11.3711 13.228 11.6331L8.728 14.4797C8.5049 14.6022 8.25451 14.6664 8 14.6664C7.74549 14.6664 7.4951 14.6022 7.272 14.4797L2.772 11.6331C2.53878 11.5056 2.34408 11.3178 2.20827 11.0894C2.07247 10.8609 2.00053 10.6002 2 10.3344V5.47772C2 4.93839 2.29533 4.44172 2.772 4.17972L7.272 1.52639C7.50169 1.39975 7.75971 1.33333 8.022 1.33333C8.28429 1.33333 8.54231 1.39975 8.772 1.52639L13.272 4.17972H13.25Z" stroke="black" stroke-linecap="round" stroke-linejoin="round"/>
</svg>
