<svg width="127" height="16" viewBox="0 0 127 16" fill="none" xmlns="http://www.w3.org/2000/svg">
<g clip-path="url(#clip0_9827_58783)">
<path d="M7.225 0.6835C7.1325 0.534 6.8945 0.0145 6.468 0C5.959 0.0075 5.565 0.2605 5.3325 0.666L4.207 2.6335C3.847 3.261 3.32 3.7795 2.682 4.131L0.6775 5.2365L0.679 5.235C0.26 5.467 0 5.9015 0 6.3745V9.549C0 9.1115 0.5325 8.868 0.684 8.774C0.8355 8.68 4.733 6.538 4.733 6.538C5.372 6.184 5.8995 5.6655 6.258 5.0365L7.9725 2.0275C7.583 1.3215 7.2605 0.7395 7.2255 0.6825L7.225 0.6835Z" fill="url(#paint0_linear_9827_58783)"/>
<path d="M15.3164 7.225C15.4659 7.1325 15.9854 6.8945 15.9999 6.468C15.9924 5.959 15.7394 5.565 15.3339 5.3325L13.3664 4.207C12.7389 3.847 12.2204 3.32 11.8689 2.682L10.7634 0.6775L10.7649 0.679C10.5329 0.26 10.0984 0 9.62544 0H6.45044C6.88794 0 7.13144 0.5325 7.22544 0.684C7.31944 0.8355 9.46144 4.733 9.46144 4.733C9.81544 5.372 10.3339 5.8995 10.9629 6.258L13.9719 7.9725C14.6779 7.583 15.2599 7.2605 15.3169 7.2255L15.3164 7.225Z" fill="url(#paint1_linear_9827_58783)"/>
<path d="M8.77509 15.3167C8.86759 15.4662 9.10559 15.9857 9.53209 16.0002C10.0411 15.9927 10.4351 15.7397 10.6676 15.3342L11.7931 13.3667C12.1531 12.7392 12.6801 12.2207 13.3181 11.8692L15.3226 10.7637L15.3211 10.7652C15.7401 10.5332 16.0001 10.0987 16.0001 9.62567V6.45117C16.0001 6.88867 15.4676 7.13217 15.3161 7.22617C15.1646 7.32017 11.2671 9.46217 11.2671 9.46217C10.6281 9.81617 10.1006 10.3347 9.74209 10.9637L8.02759 13.9727C8.41709 14.6787 8.73959 15.2607 8.77459 15.3177L8.77509 15.3167Z" fill="url(#paint2_linear_9827_58783)"/>
<path d="M0.6835 8.77484C0.534 8.86734 0.0145 9.10534 0 9.53184C0.0075 10.0408 0.2605 10.4348 0.666 10.6673L2.6335 11.7928C3.261 12.1528 3.7795 12.6798 4.131 13.3178L5.2365 15.3223L5.235 15.3208C5.467 15.7398 5.9015 15.9998 6.3745 15.9998H9.5495C9.112 15.9998 8.8685 15.4673 8.7745 15.3158C8.6805 15.1643 6.5385 11.2668 6.5385 11.2668C6.1845 10.6278 5.666 10.1003 5.037 9.74184L2.028 8.02734C1.322 8.41684 0.74 8.73934 0.683 8.77434L0.6835 8.77484Z" fill="url(#paint3_linear_9827_58783)"/>
</g>
<rect x="61.25" y="3" width="2" height="10" fill="#101820"/>
<rect x="74.5" y="3" width="2" height="10" fill="#101820"/>
<path d="M26.75 13H24.75V4.75H20V3H31.5V4.75H26.75V13Z" fill="#101820"/>
<path d="M34.75 7.125H42.75V3H44.75V13H42.75V8.875H34.75V13H32.75V3H34.75V7.125Z" fill="#101820"/>
<path d="M54.125 3L60 13H57.75L56.5752 11H49.4248L48.25 13H46L51.875 3H54.125ZM50.4531 9.25H55.5469L53 4.91406L50.4531 9.25Z" fill="#101820"/>
<path d="M73.25 13H70.25L64.5 8.96484V7.03418L70.25 3H73.25L66.25 8L73.25 13Z" fill="url(#paint4_linear_9827_58783)"/>
<path d="M121.625 13C120.781 13 120.064 12.9562 119.473 12.8685C118.883 12.7852 118.406 12.6121 118.043 12.3491C117.68 12.0817 117.415 11.6828 117.249 11.1524C117.083 10.622 117 9.91414 117 9.02871C117 8.16958 117.083 7.4814 117.249 6.96417C117.415 6.44694 117.68 6.05682 118.043 5.79383C118.406 5.53083 118.883 5.35549 119.473 5.26783C120.064 5.18016 120.781 5.13633 121.625 5.13633C122.434 5.13633 123.116 5.19769 123.672 5.32043C124.232 5.44316 124.681 5.71712 125 6.1423V3H126.25L126.25 12.75H125L125 11.9874C124.681 12.417 124.232 12.6932 123.672 12.8159C123.116 12.9386 122.434 13 121.625 13ZM124.99 9.02871C124.99 8.4019 124.947 7.90001 124.859 7.52304C124.772 7.14608 124.61 6.86335 124.374 6.67487C124.138 6.48201 123.799 6.3527 123.357 6.28695C122.915 6.2212 122.338 6.18832 121.625 6.18832C120.847 6.18832 120.23 6.2212 119.775 6.28695C119.32 6.3527 118.986 6.48201 118.771 6.67487C118.557 6.86335 118.417 7.14608 118.351 7.52304C118.29 7.90001 118.26 8.4019 118.26 9.02871C118.26 9.67744 118.29 10.1969 118.351 10.587C118.417 10.9771 118.557 11.2708 118.771 11.468C118.986 11.6609 119.32 11.7902 119.775 11.8559C120.23 11.9173 120.847 11.948 121.625 11.948C122.338 11.948 122.915 11.9173 123.357 11.8559C123.799 11.7902 124.138 11.6609 124.374 11.468C124.61 11.2708 124.772 10.9771 124.859 10.587C124.947 10.1969 124.99 9.67744 124.99 9.02871Z" fill="#97999B"/>
<path d="M110.869 13C109.889 13 109.117 12.8922 108.553 12.6767C107.989 12.4568 107.588 12.0917 107.349 11.5815C107.11 11.0669 107 10.3653 107 9.4768V5.25H108.25V9.4768C108.25 9.97823 108.286 10.3917 108.364 10.7172C108.446 11.0383 108.59 11.289 108.793 11.4693C108.997 11.6453 109.284 11.7684 109.652 11.8388C110.025 11.9092 110.505 11.9444 111.09 11.9444C111.958 11.9444 112.639 11.8718 113.133 11.7266C113.628 11.5815 113.977 11.355 114.181 11.0471C114.389 10.7348 114.5 10.3301 114.5 9.83308V5.25074H115.75V12.75H114.5V11.8454C114.318 12.1005 114.081 12.3138 113.803 12.4854C113.526 12.6569 113.155 12.7845 112.691 12.868C112.227 12.956 111.619 13 110.869 13Z" fill="#97999B"/>
<path d="M101.125 13C100.281 13 99.5637 12.9568 98.9732 12.8704C98.3828 12.7883 97.9061 12.6177 97.5431 12.3585C97.1801 12.095 96.9155 11.7018 96.7493 11.1791C96.5831 10.6564 96.5 9.95875 96.5 9.08612C96.5 8.23941 96.5831 7.56117 96.7493 7.05142C96.9155 6.54167 97.1801 6.15719 97.5431 5.89799C97.9061 5.6388 98.3828 5.466 98.9732 5.3796C99.5637 5.2932 100.281 5.25 101.125 5.25C101.973 5.25 102.691 5.2932 103.277 5.3796C103.867 5.466 104.344 5.6388 104.707 5.89799C105.07 6.15719 105.335 6.54167 105.501 7.05142C105.667 7.56117 105.75 8.23941 105.75 9.08612C105.75 9.95875 105.667 10.6564 105.501 11.1791C105.335 11.7018 105.07 12.095 104.707 12.3585C104.344 12.6177 103.867 12.7883 103.277 12.8704C102.691 12.9568 101.973 13 101.125 13ZM104.49 9.08612C104.49 8.46836 104.458 7.97373 104.392 7.60221C104.331 7.2307 104.193 6.95206 103.979 6.7663C103.764 6.57622 103.43 6.44879 102.975 6.38399C102.525 6.31919 101.908 6.28679 101.125 6.28679C100.347 6.28679 99.7298 6.31919 99.275 6.38399C98.8202 6.44879 98.4856 6.57622 98.2713 6.7663C98.057 6.95206 97.917 7.2307 97.8514 7.60221C97.7902 7.97373 97.7596 8.46836 97.7596 9.08612C97.7596 9.72547 97.7902 10.2374 97.8514 10.6219C97.917 11.0063 98.057 11.2958 98.2713 11.4902C98.4856 11.6802 98.8202 11.8077 99.275 11.8725C99.7298 11.933 100.347 11.9632 101.125 11.9632C101.908 11.9632 102.525 11.933 102.975 11.8725C103.43 11.8077 103.764 11.6802 103.979 11.4902C104.193 11.2958 104.331 11.0063 104.392 10.6219C104.458 10.2374 104.49 9.72547 104.49 9.08612Z" fill="#97999B"/>
<path d="M93.75 12.75V3H95V12.75H93.75Z" fill="#97999B"/>
<path d="M80.5 8.125V7.875C80.5 7.025 80.5415 6.3125 80.6246 5.7375C80.7077 5.15833 80.851 4.6875 81.0545 4.325C81.258 3.9625 81.5342 3.68542 81.8831 3.49375C82.2361 3.30208 82.6785 3.17292 83.2101 3.10625C83.7417 3.03542 84.3814 3 85.129 3H87.6397C88.4953 3 89.2159 3.04167 89.8016 3.125C90.3913 3.20417 90.8648 3.36458 91.222 3.60625C91.5834 3.84375 91.845 4.19583 92.007 4.6625C92.169 5.125 92.25 5.73958 92.25 6.50625H91.0538C91.0538 5.90208 90.9998 5.43333 90.8918 5.1C90.7838 4.7625 90.6011 4.51875 90.3436 4.36875C90.0902 4.21875 89.7434 4.12708 89.3032 4.09375C88.8629 4.05625 88.3084 4.0375 87.6397 4.0375H85.129C84.535 4.0375 84.0346 4.05625 83.6275 4.09375C83.2205 4.12708 82.8882 4.20833 82.6307 4.3375C82.3773 4.4625 82.1821 4.6625 82.0451 4.9375C81.9122 5.2125 81.8208 5.5875 81.7709 6.0625C81.7211 6.5375 81.6962 7.14167 81.6962 7.875V8.125C81.6962 8.83333 81.7211 9.42083 81.7709 9.8875C81.8208 10.3542 81.9122 10.7271 82.0451 11.0062C82.1821 11.2854 82.3773 11.4937 82.6307 11.6312C82.8882 11.7687 83.2205 11.8583 83.6275 11.9C84.0346 11.9417 84.535 11.9625 85.129 11.9625H87.6397C88.3084 11.9625 88.8629 11.9479 89.3032 11.9188C89.7434 11.8896 90.0902 11.8042 90.3436 11.6625C90.6011 11.5208 90.7838 11.2854 90.8918 10.9562C90.9998 10.6229 91.0538 10.1562 91.0538 9.55625H92.25C92.25 10.3229 92.169 10.9354 92.007 11.3937C91.845 11.8521 91.5834 12.1979 91.222 12.4312C90.8648 12.6604 90.3913 12.8125 89.8016 12.8875C89.2159 12.9625 88.4953 13 87.6397 13H85.129C84.1945 13 83.4261 12.9354 82.8238 12.8062C82.2216 12.6812 81.7502 12.4479 81.4096 12.1063C81.0732 11.7646 80.8364 11.2729 80.6994 10.6312C80.5665 9.98958 80.5 9.15417 80.5 8.125Z" fill="#97999B"/>
<defs>
<linearGradient id="paint0_linear_9827_58783" x1="0.0158723" y1="-0.00140692" x2="7.9725" y2="-0.00140523" gradientUnits="userSpaceOnUse">
<stop stop-color="#97999B"/>
<stop offset="1" stop-color="#101820"/>
</linearGradient>
<linearGradient id="paint1_linear_9827_58783" x1="6.46945" y1="-0.00117465" x2="15.9999" y2="-0.00117174" gradientUnits="userSpaceOnUse">
<stop stop-color="#97999B"/>
<stop offset="1" stop-color="#101820"/>
</linearGradient>
<linearGradient id="paint2_linear_9827_58783" x1="8.04346" y1="6.44976" x2="16.0001" y2="6.44977" gradientUnits="userSpaceOnUse">
<stop stop-color="#101820"/>
<stop offset="1" stop-color="#97999B"/>
</linearGradient>
<linearGradient id="paint3_linear_9827_58783" x1="0.019012" y1="8.02617" x2="9.5495" y2="8.02617" gradientUnits="userSpaceOnUse">
<stop stop-color="#101820"/>
<stop offset="1" stop-color="#97999B"/>
</linearGradient>
<linearGradient id="paint4_linear_9827_58783" x1="64.5174" y1="2.99853" x2="73.25" y2="2.99853" gradientUnits="userSpaceOnUse">
<stop stop-color="#97999B"/>
<stop offset="1" stop-color="#101820"/>
</linearGradient>
<clipPath id="clip0_9827_58783">
<rect width="16" height="16" fill="white"/>
</clipPath>
</defs>
</svg>
