<svg width="16" height="16" viewBox="0 0 16 16" fill="none" xmlns="http://www.w3.org/2000/svg">
<path d="M13.5 8.5V4.51396C13.5 4.15739 13.3551 3.81543 13.0973 3.5633C12.8394 3.31116 12.4897 3.16952 12.125 3.16952H3.875C3.51033 3.16952 3.16059 3.31116 2.90273 3.5633C2.64487 3.81543 2.5 4.15739 2.5 4.51396V12.5806C2.5 12.9372 2.64487 13.2792 2.90273 13.5313C3.16059 13.7834 3.51033 13.9251 3.875 13.9251H8M5.9375 10.564C6.625 11.0123 7.3125 11.2362 8 11.2362C8.6875 11.2362 9.375 11.0123 10.0625 10.564M5.9375 4.51396L5.25 1.82507M10.0625 4.51396L10.75 1.82507M5.9375 7.87507V7.20285M10.0625 7.87507V7.20285M10.8 12.7H14.4M12.6 10.9V14.5" stroke="currentColor" stroke-linecap="round" stroke-linejoin="round"/>
</svg>
