<svg preserveAspectRatio="none" width="100%" height="100%" overflow="visible" style="display: block;" viewBox="0 0 14 14" fill="none" xmlns="http://www.w3.org/2000/svg">
<path d="M1.75 3.5C1.75 3.26794 1.84219 3.04538 2.00628 2.88128C2.17038 2.71719 2.39294 2.625 2.625 2.625H11.375C11.6071 2.625 11.8296 2.71719 11.9937 2.88128C12.1578 3.04538 12.25 3.26794 12.25 3.5V10.5C12.25 10.7321 12.1578 10.9546 11.9937 11.1187C11.8296 11.2828 11.6071 11.375 11.375 11.375H2.625C2.39294 11.375 2.17038 11.2828 2.00628 11.1187C1.84219 10.9546 1.75 10.7321 1.75 10.5V3.5Z" stroke="currentColor" stroke-width="1.16667" stroke-linecap="round" stroke-linejoin="round"/>
<path d="M12.25 3.5L7 7.875L1.75 3.5" stroke="currentColor" stroke-width="1.16667" stroke-linecap="round" stroke-linejoin="round"/>
</svg>
