<svg width="16" height="16" viewBox="0 0 16 16" fill="none" xmlns="http://www.w3.org/2000/svg">
<path d="M13.3335 3L2.66685 3C2.54823 2.99997 2.43175 3.03158 2.32943 3.09159C2.22711 3.15159 2.14264 3.23781 2.08476 3.34135C2.02688 3.44489 1.99767 3.562 2.00014 3.68059C2.00262 3.79918 2.0367 3.91497 2.09885 4.016L7.43219 12.6827C7.49183 12.7797 7.57536 12.8599 7.67479 12.9155C7.77423 12.9711 7.88626 13.0003 8.00019 13.0003C8.11411 13.0003 8.22614 12.9711 8.32558 12.9155C8.42501 12.8599 8.50854 12.7797 8.56819 12.6827L13.9015 4.016C13.9637 3.91497 13.9978 3.79918 14.0002 3.68059C14.0027 3.562 13.9735 3.44489 13.9156 3.34135C13.8577 3.23781 13.7733 3.15159 13.6709 3.09159C13.5686 3.03158 13.4521 2.99997 13.3335 3Z" fill="currentColor"/>
</svg>
