<svg width="16" height="16" viewBox="0 0 16 16" fill="none" xmlns="http://www.w3.org/2000/svg">
<path d="M2.5 4.50716C3.92848 2.2434 6.64284 1.08121 9.32129 1.639L9.61816 1.70736C10.7608 2.00128 11.802 2.60115 12.6299 3.44173C13.4578 4.28241 14.0419 5.33276 14.3184 6.47982C14.5947 7.62687 14.5533 8.82796 14.1992 9.95345C13.8451 11.0789 13.191 12.0873 12.3076 12.8695C11.4243 13.6514 10.3445 14.1787 9.18457 14.3939C8.02462 14.609 6.82767 14.5043 5.72266 14.0911C4.61764 13.6779 3.64536 12.9716 2.91113 12.0482C2.17689 11.1246 1.70718 10.0178 1.55371 8.84798C1.51791 8.57437 1.7118 8.32352 1.98535 8.28744C2.25898 8.2518 2.51001 8.44445 2.5459 8.7181C2.67575 9.70777 3.07229 10.6437 3.69336 11.4251C4.31459 12.2066 5.13726 12.8049 6.07227 13.1546C7.00727 13.5043 8.02045 13.5925 9.00195 13.4105C9.9835 13.2284 10.898 12.7822 11.6455 12.1204C12.3927 11.4587 12.9455 10.6057 13.2451 9.65365C13.5447 8.7013 13.5796 7.68479 13.3457 6.7142C13.1118 5.74373 12.6184 4.85517 11.918 4.14388C11.2174 3.43249 10.3361 2.92484 9.36914 2.67611L9.11719 2.61752C6.76273 2.12736 4.38539 3.20418 3.21875 5.25228H3.75C4.02598 5.25246 4.24999 5.47626 4.25 5.75228C4.24982 6.02816 4.02588 6.2521 3.75 6.25228H2C1.72412 6.2521 1.50018 6.02816 1.5 5.75228V4.00228C1.5 3.72625 1.72401 3.50246 2 3.50228C2.27598 3.50247 2.5 3.72626 2.5 4.00228V4.50716Z" fill="currentColor"/>
<path d="M8 4.00033C8.2761 4.00033 8.49995 4.22422 8.5 4.50033V7.66146L10.6855 8.53646C10.9418 8.63907 11.0664 8.92954 10.9639 9.18588C10.8612 9.44201 10.5707 9.56662 10.3145 9.4642L7.81445 8.4642C7.62508 8.38818 7.50115 8.20441 7.50098 8.00033L7.5 4.50033C7.5 4.22423 7.72389 4.00038 8 4.00033Z" fill="currentColor"/>
</svg>
