<svg width="16" height="16" viewBox="0 0 16 16" fill="none" xmlns="http://www.w3.org/2000/svg">
<path d="M4.66663 12.0003V8.00033C4.66663 7.11627 5.01782 6.26842 5.64294 5.6433C6.26806 5.01818 7.1159 4.66699 7.99996 4.66699C8.88401 4.66699 9.73186 5.01818 10.357 5.6433C10.9821 6.26842 11.3333 7.11627 11.3333 8.00033V12.0003" stroke="currentColor" stroke-linecap="round" stroke-linejoin="round"/>
<path d="M3.33337 14C3.33337 14.1768 3.40361 14.3464 3.52864 14.4714C3.65366 14.5964 3.82323 14.6667 4.00004 14.6667H12C12.1769 14.6667 12.3464 14.5964 12.4714 14.4714C12.5965 14.3464 12.6667 14.1768 12.6667 14V13.3333C12.6667 12.9797 12.5262 12.6406 12.2762 12.3905C12.0261 12.1405 11.687 12 11.3334 12H4.66671C4.31309 12 3.97395 12.1405 3.7239 12.3905C3.47385 12.6406 3.33337 12.9797 3.33337 13.3333V14Z" stroke="currentColor" stroke-linecap="round" stroke-linejoin="round"/>
<path d="M13.3334 8H14" stroke="currentColor" stroke-linecap="round" stroke-linejoin="round"/>
<path d="M12.3333 3L12 3.33333" stroke="currentColor" stroke-linecap="round" stroke-linejoin="round"/>
<path d="M1.33337 8H2.00004" stroke="currentColor" stroke-linecap="round" stroke-linejoin="round"/>
<path d="M8 1.33301V1.99967" stroke="currentColor" stroke-linecap="round" stroke-linejoin="round"/>
<path d="M3.28601 3.28613L3.75734 3.75747" stroke="currentColor" stroke-linecap="round" stroke-linejoin="round"/>
<path d="M8 8V12" stroke="currentColor" stroke-linecap="round" stroke-linejoin="round"/>
</svg>
