<svg width="16" height="16" viewBox="0 0 16 16" fill="none" xmlns="http://www.w3.org/2000/svg">
<path d="M2.04036 8.6667C2.20397 10.1293 2.89943 11.4807 3.99446 12.464C5.08949 13.4473 6.50771 13.9938 7.97941 13.9996C9.4511 14.0055 10.8736 13.4702 11.9764 12.4956C13.0792 11.5211 13.7853 10.1752 13.9605 8.71392C14.1357 7.25268 13.7677 5.77801 12.9266 4.57038C12.0854 3.36274 10.8298 2.50638 9.39839 2.16416C7.96702 1.82193 6.4598 2.01772 5.16337 2.71427C3.86694 3.41083 2.87174 4.55958 2.36703 5.94204M2 2.66732V6.00065H5.33333M7.33333 8C7.33333 8.17681 7.40357 8.34638 7.5286 8.4714C7.65362 8.59643 7.82319 8.66666 8 8.66666C8.17681 8.66666 8.34638 8.59643 8.4714 8.4714C8.59643 8.34638 8.66667 8.17681 8.66667 8C8.66667 7.82319 8.59643 7.65362 8.4714 7.52859C8.34638 7.40357 8.17681 7.33333 8 7.33333C7.82319 7.33333 7.65362 7.40357 7.5286 7.52859C7.40357 7.65362 7.33333 7.82319 7.33333 8Z" stroke="currentColor" stroke-linecap="round" stroke-linejoin="round"/>
</svg>
