<svg xmlns="http://www.w3.org/2000/svg" width="16" height="16" viewBox="0 0 16 16" fill="none">
  <path d="M1.99854 4.24959H13.9998M2.74862 4.24959L3.4987 13.2506C3.4987 13.6484 3.65675 14.03 3.93809 14.3113C4.21942 14.5927 4.60099 14.7507 4.99886 14.7507H6.49902M13.2498 4.24959L12.9685 7.62496M5.74894 4.24959V1.99935C5.74894 1.80042 5.82797 1.60963 5.96864 1.46896C6.1093 1.32829 6.30009 1.24927 6.49902 1.24927H9.49935C9.69828 1.24927 9.88907 1.32829 10.0297 1.46896C10.1704 1.60963 10.2494 1.80042 10.2494 1.99935V4.24959M11.9998 10V9M13.4165 10.5833L14.1332 9.86667M13.9998 12H14.9998M13.4165 13.4167L14.1332 14.1333M11.9998 14V15M10.5832 13.4167L9.8665 14.1333M9.99984 12H8.99984M10.5832 10.5833L9.8665 9.86667M6.66634 7.33331V11.3333M9.33301 7.33331V8" stroke="currentColor" stroke-linecap="round" stroke-linejoin="round"/>
</svg>
