<svg width="16" height="16" viewBox="0 0 16 16" fill="none" xmlns="http://www.w3.org/2000/svg">
<path d="M13.9896 8.18702C14.0628 6.94654 13.7491 5.71392 13.0917 4.6594C12.4343 3.60487 11.4657 2.78047 10.3197 2.30005C9.17367 1.81963 7.90676 1.70688 6.69391 1.97738C5.48106 2.24788 4.38213 2.88829 3.54886 3.81015C2.7156 4.73202 2.18912 5.88986 2.04213 7.12379C1.89514 8.35771 2.1349 9.60683 2.72829 10.6986C3.32168 11.7905 4.23943 12.6711 5.3548 13.2189C6.47016 13.7668 7.72811 13.9548 8.95492 13.757M8 4.50016V7.8335L10 9.8335M12.6667 10.5002L11.3333 12.5002H14L12.6667 14.5002" stroke="currentColor" stroke-linecap="round" stroke-linejoin="round"/>
</svg>
