<svg width="16" height="16" viewBox="0 0 16 16" fill="none" xmlns="http://www.w3.org/2000/svg">
<g clip-path="url(#clip0_442_59)">
<path d="M3.42 9.055C4.20424 9.055 4.84 8.41924 4.84 7.635C4.84 6.85075 4.20424 6.215 3.42 6.215C2.63576 6.215 2 6.85075 2 7.635C2 8.41924 2.63576 9.055 3.42 9.055Z" stroke="currentColor" stroke-miterlimit="10"/>
<path d="M11.05 14.075C11.8342 14.075 12.47 13.4392 12.47 12.655C12.47 11.8707 11.8342 11.235 11.05 11.235C10.2658 11.235 9.63 11.8707 9.63 12.655C9.63 13.4392 10.2658 14.075 11.05 14.075Z" stroke="currentColor" stroke-miterlimit="10"/>
<path d="M13.33 5.30499C13.76 6.05499 14 6.93499 14 7.87499C14 8.99499 13.65 10.045 13.05 10.895" stroke="currentColor" stroke-miterlimit="10"/>
<path d="M4.17 5.06498C5.11 3.55498 6.77 2.54498 8.68 2.54498C8.77 2.54498 8.87 2.54498 8.97 2.56498" stroke="currentColor" stroke-miterlimit="10"/>
<path d="M3.92999 10.265C4.75999 11.945 6.45999 13.105 8.43999 13.185" stroke="currentColor" stroke-miterlimit="10"/>
<path d="M11.52 4.76499C12.3043 4.76499 12.94 4.12923 12.94 3.34499C12.94 2.56074 12.3043 1.92499 11.52 1.92499C10.7358 1.92499 10.1 2.56074 10.1 3.34499C10.1 4.12923 10.7358 4.76499 11.52 4.76499Z" stroke="currentColor" stroke-miterlimit="10"/>
</g>
<defs>
<clipPath id="clip0_442_59">
<rect width="13" height="13.15" fill="white" transform="translate(1.5 1.42499)"/>
</clipPath>
</defs>
</svg>
