<svg width="64" height="76" viewBox="0 0 64 76" fill="none" xmlns="http://www.w3.org/2000/svg">
<path fill-rule="evenodd" clip-rule="evenodd" d="M64 4H58L57.998 14C57.998 24.81 51.4005 34.0781 42.0127 38C51.4005 41.9219 57.998 51.19 57.998 62L58 72H64V76H0V72H6L5.99805 62C5.99805 51.1903 12.5951 41.9221 21.9824 38C12.5951 34.0779 5.99805 24.8097 5.99805 14L6 4H0V0H64V4ZM31.998 40C19.8478 40 9.99805 49.8497 9.99805 62L10 72H15L29.4893 55.4404C31.0829 53.6191 33.9171 53.6191 35.5107 55.4404L50 72H54L53.998 62L53.9912 61.4326C53.6903 49.5446 43.9586 40 31.998 40ZM9.99805 14C9.99805 26.1503 19.8478 36 31.998 36C43.9586 36 53.6903 26.4554 53.9912 14.5674L53.998 14L54 4H10L9.99805 14Z" fill="black"/>
</svg>
