<svg width="16" height="16" viewBox="0 0 16 16" fill="none" xmlns="http://www.w3.org/2000/svg">
<path d="M10.3496 14.9219H5.39648L7.30859 12.4814L10.3496 14.9219ZM14.8584 10.2979L11.4912 14.5205L7.94238 11.6729L11.2734 7.42188L14.8584 10.2979ZM4.20508 14.2422L1.06738 10.3076L3.90625 6.74805L4.20508 14.2422ZM15 9.08984L11.5166 6.29395C11.4636 6.25146 11.4022 6.22001 11.3369 6.20117C11.2717 6.1824 11.2032 6.17683 11.1357 6.18457C11.0681 6.19249 11.0027 6.21379 10.9434 6.24707C10.8842 6.28028 10.832 6.32458 10.79 6.37793L5.20605 13.5049L4.89551 5.77344L13.8643 4.12207L15 9.08984ZM3.96094 5.02734V5.02832L1 8.74023L2.16699 3.62891L6.89062 1.35449L3.96094 5.02734ZM12.9502 3.24316L5.62207 4.59277L8.43359 1.06738L12.9502 3.24316Z" fill="#0F172A"/>
</svg>
