<svg width="18" height="18" viewBox="0 0 16 16" fill="none" xmlns="http://www.w3.org/2000/svg">
<g clip-path="url(#clip0_symbol)">
<path d="M7.225 0.6835C7.1325 0.534 6.8945 0.0145 6.468 0C5.959 0.0075 5.565 0.2605 5.3325 0.666L4.207 2.6335C3.847 3.261 3.32 3.7795 2.682 4.131L0.6775 5.2365L0.679 5.235C0.26 5.467 0 5.9015 0 6.3745V9.549C0 9.1115 0.5325 8.868 0.684 8.774C0.8355 8.68 4.733 6.538 4.733 6.538C5.372 6.184 5.8995 5.6655 6.258 5.0365L7.9725 2.0275C7.583 1.3215 7.2605 0.7395 7.2255 0.6825L7.225 0.6835Z" fill="currentColor"/>
<path d="M15.3164 7.225C15.4659 7.1325 15.9854 6.8945 15.9999 6.468C15.9924 5.959 15.7394 5.565 15.3339 5.3325L13.3664 4.207C12.7389 3.847 12.2204 3.32 11.8689 2.682L10.7634 0.6775L10.7649 0.679C10.5329 0.26 10.0984 0 9.62544 0H6.45044C6.88794 0 7.13144 0.5325 7.22544 0.684C7.31944 0.8355 9.46144 4.733 9.46144 4.733C9.81544 5.372 10.3339 5.8995 10.9629 6.258L13.9719 7.9725C14.6779 7.583 15.2599 7.2605 15.3169 7.2255L15.3164 7.225Z" fill="currentColor"/>
<path d="M8.77509 15.3167C8.86759 15.4662 9.10559 15.9857 9.53209 16.0002C10.0411 15.9927 10.4351 15.7397 10.6676 15.3342L11.7931 13.3667C12.1531 12.7392 12.6801 12.2207 13.3181 11.8692L15.3226 10.7637L15.3211 10.7652C15.7401 10.5332 16.0001 10.0987 16.0001 9.62567V6.45117C16.0001 6.88867 15.4676 7.13217 15.3161 7.22617C15.1646 7.32017 11.2671 9.46217 11.2671 9.46217C10.6281 9.81617 10.1006 10.3347 9.74209 10.9637L8.02759 13.9727C8.41709 14.6787 8.73959 15.2607 8.77459 15.3177L8.77509 15.3167Z" fill="currentColor"/>
<path d="M0.6835 8.77484C0.534 8.86734 0.0145 9.10534 0 9.53184C0.0075 10.0408 0.2605 10.4348 0.666 10.6673L2.6335 11.7928C3.261 12.1528 3.7795 12.6798 4.131 13.3178L5.2365 15.3223L5.235 15.3208C5.467 15.7398 5.9015 15.9998 6.3745 15.9998H9.5495C9.112 15.9998 8.8685 15.4673 8.7745 15.3158C8.6805 15.1643 6.5385 11.2668 6.5385 11.2668C6.1845 10.6278 5.666 10.1003 5.037 9.74184L2.028 8.02734C1.322 8.41684 0.74 8.73934 0.683 8.77434L0.6835 8.77484Z" fill="currentColor"/>
</g>
<defs>
<clipPath id="clip0_symbol">
<rect width="16" height="16" fill="white"/>
</clipPath>
</defs>
</svg>




