<svg preserveAspectRatio="none" width="100%" height="100%" overflow="visible" style="display: block;" viewBox="0 0 16 16" fill="none" xmlns="http://www.w3.org/2000/svg">
<g id="symbol" clip-path="url(#clip0_10694_47015)">
<path id="Vector" d="M7.225 0.6835C7.1325 0.534 6.8945 0.0145 6.468 0C5.959 0.0075 5.565 0.2605 5.3325 0.666L4.207 2.6335C3.847 3.261 3.32 3.7795 2.682 4.131L0.6775 5.2365L0.679 5.235C0.26 5.467 0 5.9015 0 6.3745V9.549C0 9.1115 0.5325 8.868 0.684 8.774C0.8355 8.68 4.733 6.538 4.733 6.538C5.372 6.184 5.8995 5.6655 6.258 5.0365L7.9725 2.0275C7.583 1.3215 7.2605 0.7395 7.2255 0.6825L7.225 0.6835Z" fill="url(#paint0_linear_10694_47015)"/>
<path id="Vector_2" d="M15.3165 7.225C15.466 7.1325 15.9855 6.8945 16 6.468C15.9925 5.959 15.7395 5.565 15.334 5.3325L13.3665 4.207C12.739 3.847 12.2205 3.32 11.869 2.682L10.7635 0.6775L10.765 0.679C10.533 0.26 10.0985 0 9.6255 0H6.4505C6.888 0 7.1315 0.5325 7.2255 0.684C7.3195 0.8355 9.4615 4.733 9.4615 4.733C9.8155 5.372 10.334 5.8995 10.963 6.258L13.972 7.9725C14.678 7.583 15.26 7.2605 15.317 7.2255L15.3165 7.225Z" fill="url(#paint1_linear_10694_47015)"/>
<path id="Vector_3" d="M8.775 15.3165C8.8675 15.466 9.1055 15.9855 9.532 16C10.041 15.9925 10.435 15.7395 10.6675 15.334L11.793 13.3665C12.153 12.739 12.68 12.2205 13.318 11.869L15.3225 10.7635L15.321 10.765C15.74 10.533 16 10.0985 16 9.6255V6.451C16 6.8885 15.4675 7.132 15.316 7.226C15.1645 7.32 11.267 9.462 11.267 9.462C10.628 9.816 10.1005 10.3345 9.742 10.9635L8.0275 13.9725C8.417 14.6785 8.7395 15.2605 8.7745 15.3175L8.775 15.3165Z" fill="url(#paint2_linear_10694_47015)"/>
<path id="Vector_4" d="M0.6835 8.775C0.534 8.8675 0.0145 9.1055 0 9.532C0.0075 10.041 0.2605 10.435 0.666 10.6675L2.6335 11.793C3.261 12.153 3.7795 12.68 4.131 13.318L5.2365 15.3225L5.235 15.321C5.467 15.74 5.9015 16 6.3745 16H9.5495C9.112 16 8.8685 15.4675 8.7745 15.316C8.6805 15.1645 6.5385 11.267 6.5385 11.267C6.1845 10.628 5.666 10.1005 5.037 9.742L2.028 8.0275C1.322 8.417 0.74 8.7395 0.683 8.7745L0.6835 8.775Z" fill="url(#paint3_linear_10694_47015)"/>
</g>
<defs>
<linearGradient id="paint0_linear_10694_47015" x1="0.0158723" y1="-0.00140692" x2="7.9725" y2="-0.00140523" gradientUnits="userSpaceOnUse">
<stop stop-color="#888B8D"/>
<stop offset="1" stop-color="#101820"/>
</linearGradient>
<linearGradient id="paint1_linear_10694_47015" x1="6.46951" y1="-0.00117465" x2="16" y2="-0.00117174" gradientUnits="userSpaceOnUse">
<stop stop-color="#888B8D"/>
<stop offset="1" stop-color="#101820"/>
</linearGradient>
<linearGradient id="paint2_linear_10694_47015" x1="8.04337" y1="6.44959" x2="16" y2="6.44959" gradientUnits="userSpaceOnUse">
<stop stop-color="#101820"/>
<stop offset="1" stop-color="#888B8D"/>
</linearGradient>
<linearGradient id="paint3_linear_10694_47015" x1="0.019012" y1="8.02633" x2="9.5495" y2="8.02633" gradientUnits="userSpaceOnUse">
<stop stop-color="#101820"/>
<stop offset="1" stop-color="#888B8D"/>
</linearGradient>
<clipPath id="clip0_10694_47015">
<rect width="16" height="16" fill="white"/>
</clipPath>
</defs>
</svg>
